<?xml version="1.0" encoding="UTF-8" standalone="no"?>
<!-- Creator: CorelDRAW X6 -->

<svg
   xmlns:dc="http://purl.org/dc/elements/1.1/"
   xmlns:cc="http://creativecommons.org/ns#"
   xmlns:rdf="http://www.w3.org/1999/02/22-rdf-syntax-ns#"
   xmlns:svg="http://www.w3.org/2000/svg"
   xmlns="http://www.w3.org/2000/svg"
   xmlns:sodipodi="http://sodipodi.sourceforge.net/DTD/sodipodi-0.dtd"
   xmlns:inkscape="http://www.inkscape.org/namespaces/inkscape"
   xml:space="preserve"
   width="100"
   height="100"
   version="1.1"
   style="fill-rule:evenodd"
   viewBox="0 0 1000 1000.6116"
   id="svg2"
   inkscape:version="0.48.5 r10040"
   sodipodi:docname="cover_logo.svg"><metadata
     id="metadata14"><rdf:RDF><cc:Work
         rdf:about=""><dc:format>image/svg+xml</dc:format><dc:type
           rdf:resource="http://purl.org/dc/dcmitype/StillImage" /><dc:title></dc:title></cc:Work></rdf:RDF></metadata><sodipodi:namedview
     pagecolor="#ffffff"
     bordercolor="#666666"
     borderopacity="1"
     objecttolerance="10"
     gridtolerance="10"
     guidetolerance="10"
     inkscape:pageopacity="0"
     inkscape:pageshadow="2"
     inkscape:window-width="1436"
     inkscape:window-height="855"
     id="namedview12"
     showgrid="false"
     inkscape:zoom="2.6666667"
     inkscape:cx="94.941285"
     inkscape:cy="17.935173"
     inkscape:window-x="4"
     inkscape:window-y="0"
     inkscape:window-maximized="1"
     inkscape:current-layer="svg2" /><defs
     id="defs4"><style
       type="text/css"
       id="style6">
    .fil0 {fill:black;fill-rule:nonzero}
   </style></defs><rect
     style="fill:#c60c30;stroke:none;stroke-width:83.08413695999999504;stroke-linejoin:miter;stroke-miterlimit:4;stroke-opacity:1;stroke-dasharray:none;fill-opacity:1"
     id="rect2991"
     width="917.52747"
     height="917.52747"
     x="41.236271"
     y="41.542072" /><g
     id="Layer_x0020_1"
     transform="matrix(0.08012928,0,0,0.08012928,99.755354,369.19404)"
     style="fill:#ffffff;fill-opacity:1"><metadata
       id="CorelCorpID_0Corel-Layer" /><path
       class="fil0"
       d="M 1237,2404 C 789,2284 484,2156 288,2023 l 0,0 C 92,1891 0,1749 0,1605 l 0,0 c 0,-132 77,-251 190,-354 l 0,0 31,-28 57,63 -31,28 C 142,1409 84,1508 84,1605 l 0,0 c 0,105 66,223 251,348 l 0,0 c 184,124 482,251 924,369 l 0,0 c 743,199 2074,335 3478,335 l 0,0 c 1684,1 3478,-198 4495,-710 l 0,0 38,-19 38,75 -38,19 c -1043,524 -2841,719 -4533,719 l 0,0 c -1410,0 -2743,-136 -3500,-338 l 0,0 z M 3825,336 c -15,0 -28,-2 -39,-5 -11,-3 -21,-7 -30,-12 l 0,-35 2,0 c 9,9 19,15 31,20 12,5 23,7 33,7 15,0 27,-3 35,-10 8,-6 12,-15 12,-25 0,-8 -2,-15 -6,-20 -4,-5 -11,-9 -20,-12 -6,-2 -12,-3 -18,-5 -5,-1 -12,-3 -20,-5 -7,-2 -14,-4 -19,-7 -6,-3 -11,-7 -15,-11 -4,-5 -8,-10 -10,-16 -2,-6 -4,-13 -4,-22 0,-17 7,-31 20,-42 13,-11 30,-17 50,-17 12,0 23,1 33,3 10,2 20,6 29,10 l 0,33 -2,0 c -7,-6 -15,-11 -25,-16 -10,-5 -21,-7 -33,-7 -13,0 -23,3 -31,9 -8,6 -12,14 -12,24 0,9 2,16 7,21 5,5 11,9 20,11 6,2 13,3 22,5 9,2 16,4 21,6 14,4 25,11 32,20 7,9 10,20 10,33 0,8 -2,16 -5,24 -3,8 -8,15 -14,20 -7,6 -14,11 -23,14 -8,3 -19,5 -32,5 z m 349,-4 0,-184 -70,0 0,-25 168,0 0,25 -70,0 0,184 -28,0 z m 390,4 c -12,0 -23,-2 -32,-5 -9,-3 -17,-8 -23,-14 -7,-7 -12,-16 -15,-26 -3,-10 -5,-23 -5,-37 l 0,-130 28,0 0,130 c 0,10 1,18 2,24 1,7 4,12 7,18 4,6 9,10 15,13 6,3 14,4 23,4 9,0 16,-1 23,-4 7,-3 12,-7 16,-13 3,-5 6,-11 7,-18 1,-6 2,-14 2,-24 l 0,-130 28,0 0,130 c 0,14 -1,27 -4,37 -3,10 -8,19 -15,26 -7,6 -14,11 -23,14 -9,3 -20,5 -32,5 z m 478,-108 c 0,19 -4,36 -12,52 -8,15 -18,27 -31,36 -11,7 -21,11 -32,13 -11,2 -25,3 -42,3 l -48,0 0,-209 47,0 c 20,0 35,1 46,4 11,3 21,7 28,12 13,9 24,21 31,35 7,15 11,32 11,53 z m -29,0 c 0,-16 -3,-30 -8,-41 -5,-11 -13,-20 -24,-26 -7,-4 -15,-8 -24,-10 -8,-2 -19,-3 -31,-3 l -21,0 0,160 21,0 c 12,0 23,-1 32,-3 9,-2 18,-6 25,-11 10,-6 17,-15 22,-26 5,-11 7,-24 7,-41 z m 401,-104 -71,116 0,92 -28,0 0,-89 -71,-119 31,0 54,92 55,-92 30,0 z m 393,209 70,-209 34,0 70,209 -29,0 -19,-58 -80,0 -19,58 -28,0 z m 119,-82 -32,-98 -32,98 64,0 z m 332,86 c -15,0 -28,-2 -39,-5 -11,-3 -21,-7 -30,-12 l 0,-35 2,0 c 9,9 19,15 31,20 12,5 23,7 33,7 15,0 27,-3 35,-10 8,-6 12,-15 12,-25 0,-8 -2,-15 -6,-20 -4,-5 -11,-9 -20,-12 -6,-2 -12,-3 -18,-5 -5,-1 -12,-3 -20,-5 -7,-2 -14,-4 -19,-7 -6,-3 -11,-7 -15,-11 -4,-5 -8,-10 -10,-16 -2,-6 -4,-13 -4,-22 0,-17 7,-31 20,-42 13,-11 30,-17 50,-17 12,0 23,1 33,3 10,2 20,6 29,10 l 0,33 -2,0 c -7,-6 -15,-11 -25,-16 -10,-5 -21,-7 -33,-7 -13,0 -23,3 -31,9 -8,6 -12,14 -12,24 0,9 2,16 7,21 5,5 11,9 20,11 6,2 13,3 22,5 9,2 16,4 21,6 14,4 25,11 32,20 7,9 10,20 10,33 0,8 -2,16 -5,24 -3,8 -8,15 -14,20 -7,6 -14,11 -23,14 -8,3 -19,5 -32,5 z m 355,0 c -15,0 -28,-2 -39,-5 -11,-3 -21,-7 -30,-12 l 0,-35 2,0 c 9,9 19,15 31,20 12,5 23,7 33,7 15,0 27,-3 35,-10 8,-6 12,-15 12,-25 0,-8 -2,-15 -6,-20 -4,-5 -11,-9 -20,-12 -6,-2 -12,-3 -18,-5 -5,-1 -12,-3 -20,-5 -7,-2 -14,-4 -19,-7 -6,-3 -11,-7 -15,-11 -4,-5 -8,-10 -10,-16 -2,-6 -4,-13 -4,-22 0,-17 7,-31 20,-42 13,-11 30,-17 50,-17 12,0 23,1 33,3 10,2 20,6 29,10 l 0,33 -2,0 c -7,-6 -15,-11 -25,-16 -10,-5 -21,-7 -33,-7 -13,0 -23,3 -31,9 -8,6 -12,14 -12,24 0,9 2,16 7,21 5,5 11,9 20,11 6,2 13,3 22,5 9,2 16,4 21,6 14,4 25,11 32,20 7,9 10,20 10,33 0,8 -2,16 -5,24 -3,8 -8,15 -14,20 -7,6 -14,11 -23,14 -8,3 -19,5 -32,5 z m 448,-188 c 8,9 14,20 19,34 4,14 7,29 7,46 0,17 -2,32 -6,46 -4,14 -11,25 -19,34 -9,10 -18,17 -30,21 -11,5 -24,7 -37,7 -14,0 -27,-2 -38,-7 -11,-5 -21,-12 -29,-21 -8,-9 -14,-21 -19,-34 -4,-14 -6,-29 -6,-46 0,-18 2,-33 6,-46 4,-13 11,-25 19,-34 8,-9 18,-16 29,-21 11,-5 24,-7 38,-7 14,0 27,2 38,7 11,5 21,12 29,21 z m -4,80 c 0,-14 -1,-26 -4,-37 -3,-11 -7,-19 -13,-26 -6,-7 -12,-13 -20,-16 -8,-4 -17,-5 -26,-5 -10,0 -19,2 -26,5 -8,3 -14,9 -20,16 -5,7 -10,16 -13,27 -3,11 -4,23 -4,36 0,27 6,48 17,63 12,14 27,22 46,22 19,0 35,-7 46,-22 11,-14 17,-35 17,-63 z m 339,108 c -14,0 -26,-2 -38,-7 -11,-5 -21,-11 -30,-20 -8,-9 -15,-20 -19,-34 -5,-14 -7,-29 -7,-47 0,-17 2,-33 7,-46 4,-13 11,-24 19,-34 8,-9 18,-16 30,-21 11,-5 24,-7 38,-7 7,0 14,1 20,2 6,1 12,2 17,4 4,1 9,3 14,5 5,2 9,4 14,7 l 0,33 -2,0 c -2,-2 -6,-5 -9,-8 -4,-3 -9,-6 -14,-9 -5,-3 -11,-5 -17,-7 -6,-2 -13,-3 -22,-3 -9,0 -17,2 -25,5 -8,4 -15,9 -21,16 -6,7 -10,16 -14,27 -3,11 -5,23 -5,36 0,14 2,26 5,37 3,10 8,19 14,26 6,7 13,12 20,16 8,3 16,5 25,5 8,0 15,-1 22,-3 7,-2 13,-4 18,-7 5,-3 10,-6 13,-9 4,-3 7,-6 9,-8 l 2,0 0,33 c -5,2 -9,4 -13,6 -4,2 -9,4 -15,6 -6,2 -12,3 -17,4 -5,1 -12,2 -20,2 z m 362,-4 -81,0 0,-21 27,0 0,-166 -27,0 0,-21 81,0 0,21 -27,0 0,166 27,0 0,21 z m 210,0 70,-209 34,0 70,209 -29,0 -19,-58 -80,0 -19,58 -28,0 z m 119,-82 -32,-98 -32,98 64,0 z m 307,82 0,-184 -70,0 0,-25 168,0 0,25 -70,0 0,184 -28,0 z m 390,0 -81,0 0,-21 27,0 0,-166 -27,0 0,-21 81,0 0,21 -27,0 0,166 27,0 0,21 z m 380,-185 c 8,9 14,20 19,34 4,14 7,29 7,46 0,17 -2,32 -6,46 -4,14 -11,25 -19,34 -9,10 -18,17 -30,21 -11,5 -24,7 -37,7 -14,0 -27,-2 -38,-7 -11,-5 -21,-12 -29,-21 -8,-9 -14,-21 -19,-34 -4,-14 -6,-29 -6,-46 0,-18 2,-33 6,-46 4,-13 11,-25 19,-34 8,-9 18,-16 29,-21 11,-5 24,-7 38,-7 14,0 27,2 38,7 11,5 21,12 29,21 z m -4,80 c 0,-14 -1,-26 -4,-37 -3,-11 -7,-19 -13,-26 -6,-7 -12,-13 -20,-16 -8,-4 -17,-5 -26,-5 -10,0 -19,2 -26,5 -8,3 -14,9 -20,16 -5,7 -10,16 -13,27 -3,11 -4,23 -4,36 0,27 6,48 17,63 12,14 27,22 46,22 19,0 35,-7 46,-22 11,-14 17,-35 17,-63 z m 407,104 -31,0 -92,-180 0,180 -26,0 0,-209 39,0 84,165 0,-165 26,0 0,209 z M 5802,663 c -94,0 -176,-1 -245,-4 l -15,13 0,79 15,13 c 70,3 114,7 133,13 18,6 28,18 28,37 0,36 -43,159 -128,370 -52,129 -107,261 -164,396 -18,-39 -56,-137 -114,-292 -110,-291 -166,-449 -166,-474 0,-18 10,-30 30,-36 20,-6 63,-10 129,-12 l 15,-15 0,-79 -15,-13 c -78,3 -186,4 -325,4 -157,0 -277,-1 -360,-4 l -15,13 0,78 15,15 c 33,1 60,5 79,12 34,13 66,57 96,132 66,170 147,373 241,609 59,148 114,293 164,435 l 236,0 c 68,-171 107,-268 116,-290 l 257,-597 c 49,-113 83,-186 101,-218 18,-32 33,-52 46,-59 17,-10 53,-17 108,-20 l 13,-15 0,-82 -13,-13 c -73,3 -160,4 -261,4 z m 768,504 0,-30 c 0,-241 79,-361 238,-361 151,0 226,121 226,364 0,5 0,14 -1,27 M 6878,626 c -148,0 -305,64 -470,191 -119,92 -179,264 -179,514 0,211 56,373 168,487 112,114 269,171 471,171 154,0 296,-42 427,-125 l 59,-133 -32,-39 c -119,59 -221,89 -307,89 -128,0 -233,-46 -312,-139 -76,-86 -117,-195 -123,-327 36,0 89,-1 160,-2 71,-1 124,-2 159,-2 196,0 353,-16 471,-48 l 15,-19 c 1,-30 1,-53 1,-69 0,-179 -45,-316 -135,-411 -88,-92 -212,-139 -373,-139 z m 1580,-12 c -64,0 -114,18 -151,54 -79,86 -146,162 -202,226 l 3,-264 -30,-18 c -179,59 -349,97 -510,112 l -13,15 0,75 13,13 c 67,3 106,5 117,7 30,4 49,16 58,34 13,27 20,130 20,310 l 0,193 c 0,134 -3,259 -9,376 -2,35 -12,57 -30,65 -21,11 -74,18 -160,20 l -13,13 0,82 13,13 c 84,-6 207,-9 368,-9 130,0 261,3 393,8 l 13,-13 0,-82 -13,-12 c -108,-4 -170,-10 -187,-20 -17,-10 -26,-31 -28,-65 -6,-117 -9,-208 -9,-273 l 0,-315 c 0,-65 13,-114 40,-147 44,-54 100,-81 167,-81 75,0 133,31 175,92 l 57,-18 c 3,-50 4,-95 5,-135 l 9,-240 c -26,-11 -58,-16 -96,-16 z M 4061,1647 c -34,137 -114,206 -238,206 -159,0 -255,-131 -288,-394 l -375,0 c 21,146 71,263 152,352 108,119 266,179 472,179 134,0 253,-27 357,-82 166,-87 267,-237 304,-449 l -359,0 c -4,73 -12,135 -25,188 z M 3824,607 c -136,0 -256,25 -360,75 -170,83 -271,233 -304,450 l 365,0 c 17,-256 105,-384 265,-384 101,0 175,48 224,145 29,57 49,137 61,240 l 378,0 C 4443,1046 4423,970 4393,905 4300,707 4110,607 3823,607 z M 2391,1803 c -198,0 -355,-46 -473,-137 -221,-171 -331,-417 -331,-738 0,-237 62,-425 186,-563 124,-138 295,-207 513,-207 212,0 374,63 486,190 7,42 12,118 15,226 l 13,15 79,0 12,-13 c 7,-166 26,-311 57,-435 l -17,-20 C 2721,41 2506,1 2286,1 c -347,0 -620,90 -820,271 -196,175 -294,410 -294,704 0,182 40,351 120,508 172,338 493,506 962,506 234,0 446,-52 636,-156 l 62,-137 -34,-31 c -172,92 -347,139 -527,139 z m 1303,1324 c 3176,391 7904,-740 5590,-2186 9,-18 11,-32 28,-49 2079,1143 -849,2672 -5709,2331 l 91,-96 z"
       id="path10"
       inkscape:connector-curvature="0"
       style="fill:#ffffff;fill-opacity:1;fill-rule:nonzero" /></g></svg>