<svg xmlns="http://www.w3.org/2000/svg" xml:space="preserve" version="1.1" style="shape-rendering:geometricPrecision; image-rendering:optimizeQuality; fill-rule:evenodd; clip-rule:evenodd"
viewBox="0 0 13300 13300"
 xmlns:xlink="http://www.w3.org/1999/xlink">
 <g>
  <path d="M6719 9906c1833,0 3325,-1492 3325,-3325 0,-1833 -1492,-3325 -3325,-3325 -1833,0 -3325,1492 -3325,3325 0,1833 1492,3325 3325,3325zm0 -6234l0 0c1604,0 2909,1305 2909,2909 0,1604 -1305,2909 -2909,2909 -1604,0 -2909,-1305 -2909,-2909 0,-1604 1305,-2909 2909,-2909z"/>
  <path d="M6442 2286c115,0 208,-93 208,-208l0 -1663c0,-115 -93,-208 -208,-208 -115,0 -208,93 -208,208l0 1663c0,115 93,208 208,208z"/>
  <path d="M6650 12884l0 -1663c0,-115 -93,-208 -208,-208 -115,0 -208,93 -208,208l0 1663c0,115 93,208 208,208 115,0 208,-93 208,-208z"/>
  <path d="M2286 6858c0,-115 -93,-208 -208,-208l-1663 0c-115,0 -208,93 -208,208 0,115 93,208 208,208l1663 0c115,0 208,-93 208,-208z"/>
  <path d="M12884 6650l-1663 0c-115,0 -208,93 -208,208 0,115 93,208 208,208l1663 0c115,0 208,-93 208,-208 0,-115 -93,-208 -208,-208z"/>
  <path d="M2527 11136l1176 -1176c81,-81 81,-213 0,-294 -81,-81 -213,-81 -294,0l-1176 1176c-81,81 -81,213 0,294 41,41 94,61 147,61 53,0 106,-20 147,-61z"/>
  <path d="M10021 3556c53,0 106,-20 147,-61l1176 -1176c81,-81 81,-213 0,-294 -81,-81 -213,-81 -294,0l-1176 1176c-81,81 -81,213 0,294 41,41 94,61 147,61z"/>
  <path d="M10168 9667c-81,-81 -213,-81 -294,0 -81,81 -81,213 0,294l1176 1176c41,41 94,61 147,61 53,0 106,-20 147,-61 81,-81 81,-213 0,-294l-1176 -1176z"/>
  <path d="M3409 3495c41,41 94,61 147,61 53,0 106,-20 147,-61 81,-81 81,-213 0,-294l-1176 -1176c-81,-81 -213,-81 -294,0 -81,81 -81,213 0,294l1176 1176z"/>
 </g>
</svg>
