<svg xmlns="http://www.w3.org/2000/svg" xml:space="preserve" version="1.1" style="shape-rendering:geometricPrecision; image-rendering:optimizeQuality; fill-rule:evenodd; clip-rule:evenodd"
viewBox="0 0 13300 13300"
 xmlns:xlink="http://www.w3.org/1999/xlink">
 <g >
  <path d="M7377 9975c627,0 1240,-178 1774,-516 60,-38 97,-104 97,-176 0,-71 -37,-137 -97,-176 -850,-538 -1358,-1457 -1358,-2458 0,-1001 508,-1920 1358,-2458 60,-38 97,-104 97,-176 0,-71 -37,-138 -97,-176 -533,-337 -1147,-516 -1774,-516 -1833,0 -3325,1492 -3325,3325 0,1833 1492,3325 3325,3325zm0 -6234l0 0c442,0 877,102 1274,296 -803,629 -1274,1583 -1274,2614 0,1031 470,1985 1274,2614 -397,194 -831,296 -1274,296 -1604,0 -2909,-1305 -2909,-2909 0,-1604 1305,-2909 2909,-2909z"/>
 </g>
</svg>
