<svg xmlns="http://www.w3.org/2000/svg" xml:space="preserve" version="1.1" style="shape-rendering:geometricPrecision; image-rendering:optimizeQuality; fill-rule:evenodd; clip-rule:evenodd"
viewBox="0 0 13300 13300"
 xmlns:xlink="http://www.w3.org/1999/xlink">
 <g>
  <path d="M8105 3117c115,0 208,-93 208,-208l0 -831c0,-115 -93,-208 -208,-208 -115,0 -208,93 -208,208l0 831c0,115 93,208 208,208z"/>
  <path d="M12469 6234l-831 0c-115,0 -208,93 -208,208 0,115 93,208 208,208l831 0c115,0 208,-93 208,-208 0,-115 -93,-208 -208,-208z"/>
  <path d="M8001 11638c1239,0 2286,-1075 2286,-2347 0,-536 -194,-1031 -502,-1431 519,-459 817,-1111 817,-1807 0,-1333 -1084,-2417 -2417,-2417 -1032,0 -1958,675 -2286,1648 -1062,11 -1961,751 -2194,1771 -226,-73 -458,-110 -692,-110 -1239,0 -2286,1075 -2286,2346 0,1272 1047,2347 2286,2347l4988 0zm185 -7586l0 0c1103,0 2001,898 2001,2001 0,579 -249,1120 -682,1501 -377,-346 -856,-575 -1382,-605 -237,-843 -943,-1472 -1793,-1627 298,-753 1035,-1269 1856,-1269zm-7042 5239l0 0c0,-1047 856,-1931 1870,-1931 262,0 520,57 768,169 60,27 131,24 189,-9 58,-33 96,-92 104,-158 105,-949 900,-1665 1849,-1665 887,0 1658,631 1833,1500 19,97 105,167 204,167 15,0 34,-2 41,-4 1014,0 1870,884 1870,1931 0,1047 -856,1931 -1870,1931l-4988 0c-1014,0 -1870,-884 -1870,-1931z"/>
  <path d="M5564 4060c41,41 94,61 147,61 53,0 106,-20 147,-61 81,-81 81,-213 0,-294l-588 -588c-81,-81 -213,-81 -294,0 -81,81 -81,213 0,294l588 588z"/>
  <path d="M10707 4121c53,0 106,-20 147,-61l588 -588c81,-81 81,-213 0,-294 -81,-81 -213,-81 -294,0l-588 588c-81,81 -81,213 0,294 41,41 94,61 147,61z"/>
  <path d="M10799 8464l588 588c41,41 94,61 147,61 53,0 106,-20 147,-61 81,-81 81,-213 0,-294l-588 -588c-81,-81 -213,-81 -294,0 -81,81 -81,213 0,294z"/>
 </g>
</svg>
