<svg xmlns="http://www.w3.org/2000/svg" xml:space="preserve" version="1.1" style="shape-rendering:geometricPrecision; image-rendering:optimizeQuality; fill-rule:evenodd; clip-rule:evenodd"
viewBox="0 0 13300 13300"
 xmlns:xlink="http://www.w3.org/1999/xlink">
 <g>
  <path d="M9817 6125c-274,-975 -1173,-1666 -2200,-1666 -346,0 -672,85 -967,225 -96,-548 -348,-1059 -746,-1457 -363,-363 -821,-615 -1325,-728 -70,-16 -143,5 -193,56 -50,50 -72,123 -56,193 175,778 -55,1578 -617,2139 -561,561 -1362,791 -2139,617 -70,-16 -142,5 -193,56 -50,50 -71,123 -56,193 113,504 365,962 728,1325 172,172 369,311 578,430 -133,294 -209,618 -209,957 0,1270 1047,2343 2286,2343l4988 0c1239,0 2286,-1073 2286,-2343 0,-1228 -979,-2272 -2164,-2339zm-7470 658l0 0c-233,-233 -412,-512 -526,-820 808,81 1605,-201 2186,-783 581,-581 862,-1379 783,-2186 308,115 587,294 820,526 375,375 601,867 656,1392 -426,317 -742,777 -866,1320 -226,-73 -457,-110 -692,-110 -766,0 -1458,411 -1875,1024 -175,-101 -340,-218 -485,-363zm7348 3608l0 0 -4988 0c-1014,0 -1870,-882 -1870,-1927 0,-1045 856,-1927 1870,-1927 262,0 521,57 768,170 61,27 131,24 189,-9 58,-33 96,-92 104,-158 105,-950 900,-1666 1849,-1666 887,0 1658,631 1833,1500 19,97 105,167 204,167 21,0 35,-2 41,-4 1014,0 1870,882 1870,1927 0,1045 -857,1927 -1870,1927z"/>
 </g>
</svg>
