<svg xmlns="http://www.w3.org/2000/svg" xml:space="preserve" version="1.1" style="shape-rendering:geometricPrecision; image-rendering:optimizeQuality; fill-rule:evenodd; clip-rule:evenodd"
viewBox="0 0 13300 13300"
 xmlns:xlink="http://www.w3.org/1999/xlink">
 <g>
  <path d="M4158 10024l4983 0c1307,0 2284,-1343 2284,-2544 0,-1163 -917,-2460 -2162,-2540 -274,-974 -1172,-1665 -2199,-1665 -1071,0 -1981,745 -2216,1771 -225,-73 -457,-110 -691,-110 -1307,0 -2284,1343 -2284,2544 0,1201 977,2544 2284,2544zm0 -4672l0 0c262,0 520,57 768,169 60,28 130,24 189,-9 58,-33 96,-92 103,-158 105,-949 898,-1664 1847,-1664 887,0 1657,630 1831,1499 20,99 113,166 210,167 15,-1 30,-2 35,-4 1052,0 1869,1144 1869,2128 0,984 -816,2128 -1869,2128l-4983 0c-1052,0 -1869,-1144 -1869,-2128 0,-984 816,-2128 1869,-2128z"/>
 </g>
</svg>
