<svg xmlns="http://www.w3.org/2000/svg" xml:space="preserve" version="1.1" style="shape-rendering:geometricPrecision; image-rendering:optimizeQuality; fill-rule:evenodd; clip-rule:evenodd"
viewBox="0 0 13300 13300"
 xmlns:xlink="http://www.w3.org/1999/xlink">
 <g>
  <path d="M1924 8303c115,0 208,-93 208,-208 0,-1069 856,-1973 1869,-1973 262,0 520,57 768,169 60,28 130,24 189,-9 58,-33 96,-92 103,-158 105,-949 898,-1664 1847,-1664 887,0 1657,630 1831,1499 20,99 105,161 210,167 15,-1 30,-2 35,-4 1013,0 1869,903 1869,1973 0,115 93,208 208,208 115,0 208,-93 208,-208 0,-549 -189,-1063 -501,-1473 17,-15 51,-48 67,-63 477,-454 750,-1078 750,-1744 0,-1332 -1083,-2415 -2414,-2415 -1031,0 -1956,674 -2284,1645l22 0c-1071,0 -1981,745 -2215,1771 -226,-73 -457,-110 -691,-110 -1238,0 -2284,1094 -2284,2388 0,115 93,208 208,208zm8564 -1988c-376,-349 -859,-574 -1382,-604 -236,-843 -941,-1473 -1791,-1628 299,-751 1034,-1266 1854,-1266l0 0c1102,0 1999,897 1999,1999 0,558 -232,1082 -637,1459 -9,8 -33,31 -42,40l0 0z"/>
  <path d="M1924 9237l9136 0c115,0 208,-93 208,-208 0,-115 -93,-208 -208,-208l-9136 0c-115,0 -208,93 -208,208 0,115 93,208 208,208z"/>
  <path d="M1924 10068l9136 0c115,0 208,-93 208,-208 0,-115 -93,-208 -208,-208l-9136 0c-115,0 -208,93 -208,208 0,115 93,208 208,208z"/>
  <path d="M1924 10898l9136 0c115,0 208,-93 208,-208 0,-115 -93,-208 -208,-208l-9136 0c-115,0 -208,93 -208,208 0,115 93,208 208,208z"/>
 </g>
</svg>
