<svg xmlns="http://www.w3.org/2000/svg" xml:space="preserve" version="1.1" style="shape-rendering:geometricPrecision; image-rendering:optimizeQuality; fill-rule:evenodd; clip-rule:evenodd"
viewBox="0 0 13300 13300"
 xmlns:xlink="http://www.w3.org/1999/xlink">
 <g>
   <path d="M2632 8463c115,0 208,-93 208,-208 0,-1069 856,-1973 1869,-1973 262,0 520,57 768,169 60,28 130,24 189,-9 58,-33 96,-92 103,-158 105,-949 898,-1664 1847,-1664 887,0 1657,630 1831,1499 20,99 105,161 210,167 15,-1 30,-2 35,-4 1013,0 1869,903 1869,1973 0,115 93,208 208,208 115,0 208,-93 208,-208 0,-1252 -978,-2316 -2162,-2385 -274,-974 -1173,-1665 -2199,-1665 -345,0 -673,77 -968,217 -97,-545 -348,-1052 -744,-1448 -363,-363 -821,-614 -1324,-728 -70,-16 -142,5 -192,56 -50,50 -71,123 -56,192 175,778 -55,1577 -616,2138 -561,561 -1360,791 -2138,616 -70,-16 -142,5 -192,56 -50,50 -71,123 -56,192 113,504 365,962 728,1324 165,165 353,299 552,415 8,5 25,14 33,19l0 0c-139,306 -217,645 -217,999 0,115 93,208 208,208zm3632 -3810c-427,317 -740,781 -865,1325 -226,-73 -457,-110 -691,-110 -758,0 -1446,411 -1864,1028l0 0c-8,-4 -24,-14 -32,-18 -166,-98 -324,-211 -462,-349l0 0c-233,-233 -411,-512 -526,-819 807,81 1603,-201 2184,-782 581,-581 862,-1378 782,-2184 307,115 587,293 819,526 373,373 599,862 655,1384z"/>
   <path d="M2632 9397l9136 0c115,0 208,-93 208,-208 0,-115 -93,-208 -208,-208l-9136 0c-115,0 -208,93 -208,208 0,115 93,208 208,208z"/>
   <path d="M2632 10228l9136 0c115,0 208,-93 208,-208 0,-115 -93,-208 -208,-208l-9136 0c-115,0 -208,93 -208,208 0,115 93,208 208,208z"/>
   <path d="M2632 11058l9136 0c115,0 208,-93 208,-208 0,-115 -93,-208 -208,-208l-9136 0c-115,0 -208,93 -208,208 0,115 93,208 208,208z"/>
 </g>
</svg>
