<svg xmlns="http://www.w3.org/2000/svg" xml:space="preserve" version="1.1" style="shape-rendering:geometricPrecision; image-rendering:optimizeQuality; fill-rule:evenodd; clip-rule:evenodd"
viewBox="0 0 13300 13300"
 xmlns:xlink="http://www.w3.org/1999/xlink">
 <g>
  <path d="M9557 7481l-5814 0c-115,0 -208,93 -208,208 0,115 93,208 208,208l5814 0c115,0 208,-93 208,-208 0,-115 -93,-208 -208,-208z"/>
  <path d="M9557 6650l-5814 0c-115,0 -208,93 -208,208 0,115 93,208 208,208l5814 0c115,0 208,-93 208,-208 0,-115 -93,-208 -208,-208z"/>
  <path d="M9557 5819l-5814 0c-115,0 -208,93 -208,208 0,115 93,208 208,208l5814 0c115,0 208,-93 208,-208 0,-115 -93,-208 -208,-208z"/>
 </g>
</svg>
