<svg xmlns="http://www.w3.org/2000/svg" xml:space="preserve" version="1.1" style="shape-rendering:geometricPrecision; image-rendering:optimizeQuality; fill-rule:evenodd; clip-rule:evenodd"
viewBox="0 0 13300 13300"
 xmlns:xlink="http://www.w3.org/1999/xlink">
 <g>
  <path d="M5257 10345l-1037 1037c-81,81 -81,212 0,294 41,40 94,61 147,61 53,0 106,-20 147,-61l1037 -1037c81,-81 81,-212 0,-294 -81,-81 -212,-81 -294,0z"/>
  <path d="M6918 10345l-1037 1037c-81,81 -81,212 0,294 40,40 94,61 147,61 53,0 106,-20 147,-61l1037 -1037c81,-81 81,-212 0,-294 -81,-81 -212,-81 -294,0z"/>
  <path d="M4001 9557l4983 0c1259,0 2284,-1029 2284,-2293 0,-527 -186,-1007 -484,-1394 507,-458 799,-1101 799,-1789 0,-1332 -1083,-2415 -2414,-2415 -1032,0 -1957,675 -2284,1647 -1061,11 -1960,750 -2193,1769 -225,-73 -457,-110 -691,-110 -1259,0 -2284,1029 -2284,2293 0,1264 1025,2293 2284,2293zm5168 -7476l0 0c1102,0 1999,897 1999,1999 0,571 -243,1106 -665,1485 -376,-339 -859,-562 -1396,-591 -237,-843 -942,-1471 -1792,-1626 298,-752 1034,-1268 1854,-1268zm-5168 3306l0 0c262,0 520,57 768,169 60,27 131,24 188,-9 58,-33 97,-91 104,-158 105,-949 899,-1664 1847,-1664 887,0 1657,630 1831,1499 19,97 105,167 204,167 16,1 34,-2 42,-4 1031,0 1869,842 1869,1877 0,1035 -838,1878 -1869,1878l-4983 0c-1031,0 -1869,-842 -1869,-1878 0,-1035 838,-1877 1869,-1877z"/>
 </g>
</svg>
