<svg xmlns="http://www.w3.org/2000/svg" xml:space="preserve" version="1.1" style="shape-rendering:geometricPrecision; image-rendering:optimizeQuality; fill-rule:evenodd; clip-rule:evenodd"
viewBox="0 0 13300 13300"
 xmlns:xlink="http://www.w3.org/1999/xlink">
 <g>
  <path d="M9814 4828c-274,-974 -1172,-1665 -2198,-1665 -346,0 -671,85 -966,224 -96,-548 -348,-1058 -746,-1456 -363,-363 -821,-614 -1324,-728 -70,-16 -142,5 -192,56 -50,50 -71,123 -56,192 175,778 -55,1577 -616,2138 -561,560 -1359,791 -2138,616 -70,-16 -142,5 -192,56 -50,50 -71,123 -56,192 113,504 365,962 728,1324 174,173 372,313 583,433 -136,300 -215,631 -215,978 0,1283 1046,2366 2284,2366l4983 0c1238,0 2284,-1083 2284,-2366 0,-1240 -978,-2294 -2162,-2363zm-7464 657l0 0c-233,-232 -411,-512 -526,-819 806,81 1603,-201 2184,-782 581,-581 862,-1378 782,-2184 307,115 587,293 819,526 375,375 600,866 655,1390 -425,317 -741,776 -865,1319 -225,-73 -457,-110 -691,-110 -762,0 -1451,411 -1868,1026 -177,-101 -344,-219 -491,-366zm7342 3656l0 0 -4983 0c-1013,0 -1869,-893 -1869,-1951 0,-1057 856,-1951 1869,-1951 262,0 520,57 768,169 60,27 130,24 189,-9 58,-33 96,-91 104,-158 105,-949 899,-1664 1847,-1664 887,0 1657,630 1831,1499 20,99 98,165 209,167 15,0 30,-2 36,-4 1013,0 1869,893 1869,1951 0,1057 -856,1951 -1869,1951z"/>
  <path d="M2853 11624l1037 -1037c81,-81 81,-212 0,-294 -81,-81 -212,-81 -294,0l-1037 1037c-81,81 -81,212 0,294 40,41 94,61 147,61 53,0 106,-20 147,-61z"/>
  <path d="M4514 11624l1037 -1037c81,-81 81,-212 0,-294 -81,-81 -212,-81 -294,0l-1037 1037c-81,81 -81,212 0,294 40,41 94,61 147,61 53,0 106,-20 147,-61z"/>
  <path d="M6175 11624l1037 -1037c81,-81 81,-212 0,-294 -81,-81 -212,-81 -294,0l-1037 1037c-81,81 -81,212 0,294 40,41 94,61 147,61 53,0 106,-20 147,-61z"/>
  <path d="M7836 11624l1037 -1037c81,-81 81,-212 0,-294 -81,-81 -212,-81 -294,0l-1037 1037c-81,81 -81,212 0,294 41,41 94,61 147,61 53,0 106,-20 147,-61z"/>
 </g>
</svg>
