<svg xmlns="http://www.w3.org/2000/svg" xml:space="preserve" version="1.1" style="shape-rendering:geometricPrecision; image-rendering:optimizeQuality; fill-rule:evenodd; clip-rule:evenodd"
viewBox="0 0 13300 13300"
 xmlns:xlink="http://www.w3.org/1999/xlink">
 <g>
  <path d="M11426 6443c0,-1252 -978,-2316 -2162,-2384 -274,-974 -1172,-1665 -2198,-1665 -1071,0 -1981,745 -2215,1771 -225,-73 -457,-110 -691,-110 -1238,0 -2284,1094 -2284,2388 0,1294 1046,2388 2284,2388l4983 0c1238,0 2284,-1094 2284,-2388zm-9136 0l0 0c0,-1069 856,-1973 1869,-1973 262,0 520,57 768,169 61,27 131,24 189,-9 58,-33 96,-91 104,-158 105,-949 899,-1664 1847,-1664 887,0 1657,630 1831,1499 20,99 91,165 209,167 15,-1 30,-2 36,-4 1013,0 1869,903 1869,1973 0,1069 -856,1973 -1869,1973l-4983 0c-1013,0 -1869,-903 -1869,-1973z"/>
  <path d="M5447 9515c-81,-81 -212,-81 -294,0l-1037 1037c-81,81 -81,212 0,294 41,40 94,61 147,61 53,0 106,-20 147,-61l1037 -1037c81,-81 81,-212 0,-294z"/>
  <path d="M7108 9515c-81,-81 -213,-81 -294,0l-1037 1037c-81,81 -81,212 0,294 41,40 94,61 147,61 53,0 106,-20 147,-61l1037 -1037c81,-81 81,-212 0,-294z"/>
 </g>
</svg>
