<svg xmlns="http://www.w3.org/2000/svg" xml:space="preserve" version="1.1" style="shape-rendering:geometricPrecision; image-rendering:optimizeQuality; fill-rule:evenodd; clip-rule:evenodd"
viewBox="0 0 13300 13300"
 xmlns:xlink="http://www.w3.org/1999/xlink">
 <g>
  <path d="M9264 3089c-274,-974 -1172,-1665 -2198,-1665 -1071,0 -1981,745 -2215,1771 -225,-73 -457,-110 -691,-110 -1238,0 -2284,1102 -2284,2405 0,1304 1046,2405 2284,2405l4983 0c1238,0 2284,-1102 2284,-2405 0,-1261 -978,-2332 -2162,-2402zm-122 4392l0 0 -4983 0c-995,0 -1869,-930 -1869,-1990 0,-1060 873,-1990 1869,-1990 262,0 520,57 768,169 61,28 130,24 188,-9 58,-33 96,-92 104,-158 105,-949 899,-1664 1847,-1664 887,0 1657,630 1832,1499 19,97 105,167 204,167 19,2 35,-2 41,-4 995,0 1869,930 1869,1990 0,1060 -873,1990 -1869,1990z"/>
  <path d="M4775 11688c40,39 92,58 144,58 54,0 109,-21 149,-63l1315 -1358c58,-60 74,-149 42,-225 -33,-77 -108,-127 -191,-127l-500 0 832 -773c84,-78 89,-209 11,-293 -79,-84 -210,-89 -293,-11l-1219 1133c-63,58 -83,149 -52,228 31,79 108,132 193,132l539 0 -974 1006c-80,82 -78,214 5,294z"/>
  <path d="M7733 10083l1037 -1037c81,-81 81,-212 0,-294 -81,-81 -212,-81 -294,0l-1037 1037c-81,81 -81,212 0,294 41,41 94,61 147,61 53,0 106,-20 147,-61z"/>
  <path d="M3580 10083l1037 -1037c81,-81 81,-212 0,-294 -81,-81 -212,-81 -294,0l-1037 1037c-81,81 -81,212 0,294 40,41 94,61 147,61 53,0 106,-20 147,-61z"/>
 </g>
</svg>
