<svg xmlns="http://www.w3.org/2000/svg" xml:space="preserve" version="1.1" style="shape-rendering:geometricPrecision; image-rendering:optimizeQuality; fill-rule:evenodd; clip-rule:evenodd"
viewBox="0 0 13300 13300"
 xmlns:xlink="http://www.w3.org/1999/xlink">
 <g>
  <path d="M4089 8727l4983 0c1217,0 2284,-1164 2284,-2492 0,-1283 -997,-2413 -2162,-2488 -274,-974 -1172,-1665 -2198,-1665 -1071,0 -1981,745 -2215,1771 -225,-73 -457,-110 -691,-110 -1217,0 -2284,1164 -2284,2492 0,1327 1067,2492 2284,2492zm0 -4568l0 0c262,0 520,57 768,169 61,28 130,24 189,-9 58,-33 96,-91 104,-158 105,-949 899,-1664 1847,-1664 887,0 1657,630 1831,1499 20,99 105,162 210,167 15,-1 30,-2 35,-4 1069,0 1869,1096 1869,2076 0,980 -799,2076 -1869,2076l-4983 0c-1070,0 -1869,-1096 -1869,-2076 0,-980 799,-2076 1869,-2076z"/>
  <path d="M5127 10388c0,115 93,208 208,208 115,0 208,-93 208,-208 0,-115 -93,-208 -208,-208 -115,0 -208,93 -208,208z"/>
  <path d="M7204 10388c0,115 93,208 208,208 115,0 208,-93 208,-208 0,-115 -93,-208 -208,-208 -115,0 -208,93 -208,208z"/>
  <path d="M6788 9557c0,-115 -93,-208 -208,-208 -115,0 -208,93 -208,208 0,115 93,208 208,208 115,0 208,-93 208,-208z"/>
  <path d="M8450 9557c0,115 93,208 208,208 115,0 208,-93 208,-208 0,-115 -93,-208 -208,-208 -115,0 -208,93 -208,208z"/>
  <path d="M6373 11218c0,-115 -93,-208 -208,-208 -115,0 -208,93 -208,208 0,115 93,208 208,208 115,0 208,-93 208,-208z"/>
  <path d="M4297 9557c0,115 93,208 208,208 115,0 208,-93 208,-208 0,-115 -93,-208 -208,-208 -115,0 -208,93 -208,208z"/>
 </g>
</svg>
