<svg xmlns="http://www.w3.org/2000/svg" xml:space="preserve" version="1.1" style="shape-rendering:geometricPrecision; image-rendering:optimizeQuality; fill-rule:evenodd; clip-rule:evenodd"
viewBox="0 0 13300 13300"
 xmlns:xlink="http://www.w3.org/1999/xlink">
 <g>
  <path d="M6206 8524c-3,-116 -5,-204 -5,-263 0,-344 48,-640 146,-889 71,-189 186,-379 346,-570 116,-139 327,-342 630,-610 304,-267 500,-480 591,-640 91,-161 136,-334 136,-523 0,-342 -133,-643 -399,-902 -266,-259 -591,-389 -977,-389 -374,0 -684,118 -934,352 -251,236 -414,603 -492,1103l-897 -110c81,-666 321,-1178 721,-1532 400,-354 929,-532 1586,-532 696,0 1251,189 1666,570 414,380 621,841 621,1380 0,312 -73,600 -219,862 -146,264 -432,583 -857,960 -286,253 -472,439 -560,558 -88,120 -153,257 -194,414 -42,154 -66,407 -73,758l-837 0zm-160 1754l0 -997 997 0 0 997 -997 0z"/>
 </g>
</svg>
