<svg xmlns="http://www.w3.org/2000/svg" xml:space="preserve" version="1.1" style="shape-rendering:geometricPrecision; image-rendering:optimizeQuality; fill-rule:evenodd; clip-rule:evenodd"
viewBox="0 0 13300 13300"
 xmlns:xlink="http://www.w3.org/1999/xlink">
 <g>
  <path d="M4989 8727c0,-115 -93,-208 -208,-208 -115,0 -208,93 -208,208l0 1661c0,115 93,208 208,208 115,0 208,-93 208,-208l0 -1661z"/>
  <path d="M7481 8727c0,-115 -93,-208 -208,-208 -115,0 -208,93 -208,208l0 1661c0,115 93,208 208,208 115,0 208,-93 208,-208l0 -1661z"/>
  <path d="M6235 8727c0,-115 -93,-208 -208,-208 -115,0 -208,93 -208,208l0 831c0,115 93,208 208,208 115,0 208,-93 208,-208l0 -831z"/>
  <path d="M8726 8727c0,-115 -93,-208 -208,-208 -115,0 -208,93 -208,208l0 831c0,115 93,208 208,208 115,0 208,-93 208,-208l0 -831z"/>
  <path d="M11356 5486c0,-1263 -978,-2337 -2162,-2406 -274,-974 -1172,-1665 -2199,-1665 -1071,0 -1981,745 -2216,1771 -225,-73 -457,-110 -691,-110 -1238,0 -2284,1104 -2284,2410 0,1306 1046,2410 2284,2410l4984 0c1238,0 2284,-1104 2284,-2410zm-9136 0l0 0c0,-1063 873,-1995 1869,-1995 262,0 520,57 768,169 61,28 131,24 188,-9 58,-33 97,-92 104,-158 105,-949 899,-1664 1847,-1664 887,0 1657,630 1831,1499 20,99 105,165 210,167 15,-1 30,-2 35,-4 996,0 1869,932 1869,1995 0,1063 -873,1995 -1869,1995l-4984 0c-996,0 -1869,-932 -1869,-1995z"/>
  <path d="M5998 10432c-115,0 -208,93 -208,208 0,115 93,208 208,208 115,0 208,-93 208,-208 0,-115 -93,-208 -208,-208z"/>
  <path d="M8489 10432c-115,0 -208,93 -208,208 0,115 93,208 208,208 115,0 208,-93 208,-208 0,-115 -93,-208 -208,-208z"/>
  <path d="M7244 11262c-115,0 -208,93 -208,208 0,115 93,208 208,208 115,0 208,-93 208,-208 0,-115 -93,-208 -208,-208z"/>
  <path d="M4752 11262c-115,0 -208,93 -208,208 0,115 93,208 208,208 115,0 208,-93 208,-208 0,-115 -93,-208 -208,-208z"/>
 </g>
</svg>
