<svg xmlns="http://www.w3.org/2000/svg" xml:space="preserve" version="1.1" style="shape-rendering:geometricPrecision; image-rendering:optimizeQuality; fill-rule:evenodd; clip-rule:evenodd"
viewBox="0 0 13300 13300"
 xmlns:xlink="http://www.w3.org/1999/xlink">
 <g>
  <path d="M2082 6131c115,0 208,-93 208,-208 0,-1069 856,-1973 1869,-1973 262,0 520,57 768,169 60,28 130,24 189,-9 58,-33 96,-92 103,-158 105,-949 898,-1664 1847,-1664 887,0 1657,630 1831,1499 20,99 105,161 210,167 15,-1 30,-2 35,-4 1013,0 1869,903 1869,1973 0,115 93,208 208,208 115,0 208,-93 208,-208 0,-1252 -978,-2316 -2162,-2385 -274,-974 -1173,-1665 -2199,-1665 -1071,0 -1981,745 -2215,1771 -226,-73 -457,-110 -691,-110 -1238,0 -2284,1094 -2284,2388 0,115 93,208 208,208z"/>
  <path d="M2082 7065l9136 0c115,0 208,-93 208,-208 0,-115 -93,-208 -208,-208l-9136 0c-115,0 -208,93 -208,208 0,115 93,208 208,208z"/>
  <path d="M2082 7896l9136 0c115,0 208,-93 208,-208 0,-115 -93,-208 -208,-208l-9136 0c-115,0 -208,93 -208,208 0,115 93,208 208,208z"/>
  <path d="M2082 8726l9136 0c115,0 208,-93 208,-208 0,-115 -93,-208 -208,-208l-9136 0c-115,0 -208,93 -208,208 0,115 93,208 208,208z"/>
  <path d="M5197 10388c0,115 93,208 208,208 115,0 208,-93 208,-208 0,-115 -93,-208 -208,-208 -115,0 -208,93 -208,208z"/>
  <path d="M7273 10388c0,115 93,208 208,208 115,0 208,-93 208,-208 0,-115 -93,-208 -208,-208 -115,0 -208,93 -208,208z"/>
  <path d="M6858 9557c0,-115 -93,-208 -208,-208 -115,0 -208,93 -208,208 0,115 93,208 208,208 115,0 208,-93 208,-208z"/>
  <path d="M8519 9557c0,115 93,208 208,208 115,0 208,-93 208,-208 0,-115 -93,-208 -208,-208 -115,0 -208,93 -208,208z"/>
  <path d="M6442 11218c0,-115 -93,-208 -208,-208 -115,0 -208,93 -208,208 0,115 93,208 208,208 115,0 208,-93 208,-208z"/>
  <path d="M4366 9557c0,115 93,208 208,208 115,0 208,-93 208,-208 0,-115 -93,-208 -208,-208 -115,0 -208,93 -208,208z"/>
 </g>
</svg>
