<?xml version="1.0" encoding="UTF-8" standalone="no"?>
<!-- Created with Inkscape (http://www.inkscape.org/) -->

<svg
   xmlns:dc="http://purl.org/dc/elements/1.1/"
   xmlns:cc="http://creativecommons.org/ns#"
   xmlns:rdf="http://www.w3.org/1999/02/22-rdf-syntax-ns#"
   xmlns:svg="http://www.w3.org/2000/svg"
   xmlns="http://www.w3.org/2000/svg"
   xmlns:sodipodi="http://sodipodi.sourceforge.net/DTD/sodipodi-0.dtd"
   xmlns:inkscape="http://www.inkscape.org/namespaces/inkscape"
   width="700"
   height="80"
   viewBox="0 0 700 80"
   id="svg2"
   version="1.1"
   inkscape:version="0.91+devel+osxmenu r12922"
   sodipodi:docname="committee-battle.svg">
  <sodipodi:namedview
     id="base"
     pagecolor="#ffffff"
     bordercolor="#666666"
     borderopacity="1.0"
     inkscape:pageopacity="0.0"
     inkscape:pageshadow="2"
     inkscape:zoom="0.35"
     inkscape:cx="1294.0548"
     inkscape:cy="882.80302"
     inkscape:document-units="mm"
     inkscape:current-layer="layer1"
     showgrid="false"
     inkscape:window-width="1920"
     inkscape:window-height="1080"
     inkscape:window-x="0"
     inkscape:window-y="22"
     inkscape:window-maximized="0"
     fit-margin-top="0"
     fit-margin-left="0"
     fit-margin-right="0"
     fit-margin-bottom="0" />
  <metadata
     id="metadata7">
    <rdf:RDF>
      <cc:Work
         rdf:about="">
        <dc:format>image/svg+xml</dc:format>
        <dc:type
           rdf:resource="http://purl.org/dc/dcmitype/StillImage" />
        <dc:title></dc:title>
      </cc:Work>
    </rdf:RDF>
  </metadata>
  <g
     inkscape:label="Layer 1"
     inkscape:groupmode="layer"
     id="layer1"
     transform="translate(-55.623605,-424.28255)">
    <g
       style="font-style:normal;font-variant:normal;font-weight:normal;font-stretch:condensed;font-size:96px;line-height:125%;font-family:Impact;-inkscape-font-specification:'Impact Condensed';letter-spacing:0px;word-spacing:0px;fill:#ffffff;fill-opacity:1;stroke:none;stroke-width:1px;stroke-linecap:butt;stroke-linejoin:miter;stroke-opacity:1;"
       aria-label="Committee Battle"
       id="flowRoot4141"
       transform="translate(4.6380895)">
      <path
         d="m 107.16602,458.97005 -19.734379,0 2.625,-13.21875 q 1.171875,-5.76562 0.796875,-7.17187 -0.328125,-1.45313 -2.484375,-1.45313 -2.4375,0 -3.46875,1.73438 -0.984375,1.73437 -2.15625,7.5 l -7.03125,35.25 q -1.125,5.53125 -0.796875,7.21875 0.328125,1.6875 2.625,1.6875 2.203125,0 3.1875,-1.6875 1.03125,-1.6875 2.296875,-7.92188 l 1.921875,-9.51562 19.734374,0 -0.60937,2.95312 q -2.34375,11.76563 -5.015629,16.6875 -2.625,4.92188 -9.09375,8.625 -6.421875,3.70313 -14.765625,3.70313 -8.671875,0 -13.6875,-3.14063 -4.96875,-3.14062 -5.71875,-8.67187 -0.703125,-5.57813 1.546875,-16.73438 l 4.453125,-22.17187 q 1.640625,-8.20313 3,-12.28125 1.40625,-4.125 4.921875,-7.92188 3.5625,-3.79687 8.953125,-5.95312 5.390625,-2.20313 11.8125,-2.20313 8.71875,0 13.687504,3.375 5.01562,3.375 5.76562,8.4375 0.79688,5.01563 -1.35937,15.65625 l -1.40625,7.21875 z"
         style="font-style:italic;font-variant:normal;font-weight:normal;font-stretch:normal;font-size:96px;font-family:Impact;-inkscape-font-specification:'Impact Italic';fill:#ffffff;fill-opacity:1"
         id="path4150"
         inkscape:connector-curvature="0" />
      <path
         d="m 156.10352,461.40755 -3.04688,15.23438 q -1.6875,8.39062 -3.32812,12.32812 -1.59375,3.89063 -5.0625,7.3125 -3.42188,3.375 -8.10938,5.01563 -4.64062,1.59375 -10.26562,1.59375 -6.28125,0 -10.35938,-1.35938 -4.07812,-1.40625 -5.95312,-4.17187 -1.82813,-2.8125 -2.0625,-6.75 -0.23438,-3.98438 1.3125,-11.90625 l 3.1875,-15.9375 q 1.73437,-8.67188 4.59375,-13.54688 2.85937,-4.875 8.29687,-7.82812 5.48438,-2.95313 13.07813,-2.95313 6.375,0 10.54687,1.92188 4.21875,1.875 6.09375,4.92187 1.875,3.04688 2.10938,6.28125 0.28125,3.23438 -1.03125,9.84375 z m -18,-4.6875 q 0.98437,-4.78125 0.70312,-6 -0.28125,-1.26562 -1.96875,-1.26562 -1.6875,0 -2.48437,1.26562 -0.79688,1.21875 -1.78125,6 l -5.625,28.07813 q -0.84375,4.40625 -0.5625,5.76562 0.28125,1.3125 1.92187,1.3125 1.6875,0 2.48438,-1.21875 0.79687,-1.21875 1.59375,-5.25 l 5.71875,-28.6875 z"
         style="font-style:italic;font-variant:normal;font-weight:normal;font-stretch:normal;font-size:96px;font-family:Impact;-inkscape-font-specification:'Impact Italic';fill:#ffffff;fill-opacity:1"
         id="path4152"
         inkscape:connector-curvature="0" />
      <path
         d="m 185.44727,439.5638 -1.5,5.90625 q 2.90625,-3.51562 6.28125,-5.25 3.42187,-1.78125 7.3125,-1.78125 7.59375,0 10.54687,7.03125 3.09375,-3.51562 6.42188,-5.25 3.375,-1.78125 7.03125,-1.78125 4.82812,0 7.5,2.34375 2.71875,2.34375 2.90625,5.76563 0.23437,3.375 -1.26563,11.01562 l -8.85937,44.20313 -18.375,0 8.10937,-40.54688 q 1.59375,-7.96875 1.40625,-9.84375 -0.14062,-1.92187 -2.10937,-1.92187 -2.01563,0 -3,1.875 -0.9375,1.875 -2.53125,9.89062 l -8.10938,40.54688 -18.375,0 7.92188,-39.51563 q 1.82812,-9.14062 1.73437,-10.96875 -0.0937,-1.82812 -2.10937,-1.82812 -1.26563,0 -2.34375,0.98437 -1.07813,0.9375 -1.45313,2.34375 -0.375,1.35938 -1.26562,5.85938 l -8.625,43.125 -18.375,0 12.42187,-62.20313 18.70313,0 z"
         style="font-style:italic;font-variant:normal;font-weight:normal;font-stretch:normal;font-size:96px;font-family:Impact;-inkscape-font-specification:'Impact Italic';fill:#ffffff;fill-opacity:1"
         id="path4154"
         inkscape:connector-curvature="0" />
      <path
         d="m 259.50977,439.5638 -1.5,5.90625 q 2.90625,-3.51562 6.28125,-5.25 3.42187,-1.78125 7.3125,-1.78125 7.59375,0 10.54687,7.03125 3.09375,-3.51562 6.42188,-5.25 3.375,-1.78125 7.03125,-1.78125 4.82812,0 7.5,2.34375 2.71875,2.34375 2.90625,5.76563 0.23437,3.375 -1.26563,11.01562 l -8.85937,44.20313 -18.375,0 8.10937,-40.54688 q 1.59375,-7.96875 1.40625,-9.84375 -0.14062,-1.92187 -2.10937,-1.92187 -2.01563,0 -3,1.875 -0.9375,1.875 -2.53125,9.89062 l -8.10938,40.54688 -18.375,0 7.92188,-39.51563 q 1.82812,-9.14062 1.73437,-10.96875 -0.0937,-1.82812 -2.10937,-1.82812 -1.26563,0 -2.34375,0.98437 -1.07813,0.9375 -1.45313,2.34375 -0.375,1.35938 -1.26562,5.85938 l -8.625,43.125 -18.375,0 12.42187,-62.20313 18.70313,0 z"
         style="font-style:italic;font-variant:normal;font-weight:normal;font-stretch:normal;font-size:96px;font-family:Impact;-inkscape-font-specification:'Impact Italic';fill:#ffffff;fill-opacity:1"
         id="path4156"
         inkscape:connector-curvature="0" />
      <path
         d="m 337.13477,425.8763 -1.96875,9.89063 -19.5,0 1.96875,-9.89063 19.5,0 z m -2.76563,13.6875 -12.42187,62.20313 -19.5,0 12.42187,-62.20313 19.5,0 z"
         style="font-style:italic;font-variant:normal;font-weight:normal;font-stretch:normal;font-size:96px;font-family:Impact;-inkscape-font-specification:'Impact Italic';fill:#ffffff;fill-opacity:1"
         id="path4158"
         inkscape:connector-curvature="0" />
      <path
         d="m 362.77539,431.26693 -1.96875,9.79687 5.10938,0 -1.96875,9.84375 -5.10938,0 -6.65625,33.28125 q -1.21875,6.14063 -0.75,6.84375 0.51563,0.70313 5.15625,0.70313 l -2.01562,10.03125 -7.64063,0 q -6.46875,0 -9.14062,-0.51563 -2.625,-0.5625 -4.35938,-2.48437 -1.73437,-1.96875 -1.73437,-4.45313 0,-2.53125 1.82812,-11.8125 l 6.32813,-31.59375 -4.07813,0 1.96875,-9.84375 4.07813,0 1.96875,-9.79687 18.98437,0 z"
         style="font-style:italic;font-variant:normal;font-weight:normal;font-stretch:normal;font-size:96px;font-family:Impact;-inkscape-font-specification:'Impact Italic';fill:#ffffff;fill-opacity:1"
         id="path4160"
         inkscape:connector-curvature="0" />
      <path
         d="m 392.02539,431.26693 -1.96875,9.79687 5.10938,0 -1.96875,9.84375 -5.10938,0 -6.65625,33.28125 q -1.21875,6.14063 -0.75,6.84375 0.51563,0.70313 5.15625,0.70313 l -2.01562,10.03125 -7.64063,0 q -6.46875,0 -9.14062,-0.51563 -2.625,-0.5625 -4.35938,-2.48437 -1.73437,-1.96875 -1.73437,-4.45313 0,-2.53125 1.82812,-11.8125 l 6.32813,-31.59375 -4.07813,0 1.96875,-9.84375 4.07813,0 1.96875,-9.79687 18.98437,0 z"
         style="font-style:italic;font-variant:normal;font-weight:normal;font-stretch:normal;font-size:96px;font-family:Impact;-inkscape-font-specification:'Impact Italic';fill:#ffffff;fill-opacity:1"
         id="path4162"
         inkscape:connector-curvature="0" />
      <path
         d="m 436.08789,471.76693 -24.51562,0 -2.67188,13.45312 q -0.84375,4.21875 -0.51562,5.4375 0.375,1.21875 2.10937,1.21875 2.15625,0 3.1875,-1.59375 1.07813,-1.64062 2.01563,-6.28125 l 1.64062,-8.20312 17.95313,0 -0.9375,4.59375 q -1.125,5.76562 -2.48438,8.85937 -1.35937,3.09375 -4.73437,6.60938 -3.375,3.51562 -7.82813,5.29687 -4.45312,1.73438 -10.64062,1.73438 -6,0 -10.26563,-1.73438 -4.21875,-1.73437 -6.1875,-4.73437 -1.92187,-3.04688 -2.20312,-6.65625 -0.23438,-3.65625 1.125,-10.59375 l 3.65625,-18.14063 q 1.64062,-8.15625 4.78125,-12.84375 3.14062,-4.73437 8.625,-7.21875 5.53125,-2.53125 12.04687,-2.53125 7.96875,0 12.51563,3.04688 4.59375,3 5.67187,8.01562 1.125,4.96875 -0.70312,14.01563 l -1.64063,8.25 z m -16.96875,-10.125 0.9375,-4.54688 q 0.9375,-4.82812 0.70313,-6.23437 -0.23438,-1.40625 -1.82813,-1.40625 -1.96875,0 -2.67187,1.21875 -0.70313,1.17187 -1.73438,6.42187 l -0.9375,4.54688 5.53125,0 z"
         style="font-style:italic;font-variant:normal;font-weight:normal;font-stretch:normal;font-size:96px;font-family:Impact;-inkscape-font-specification:'Impact Italic';fill:#ffffff;fill-opacity:1"
         id="path4164"
         inkscape:connector-curvature="0" />
      <path
         d="m 485.21289,471.76693 -24.51562,0 -2.67188,13.45312 q -0.84375,4.21875 -0.51562,5.4375 0.375,1.21875 2.10937,1.21875 2.15625,0 3.1875,-1.59375 1.07813,-1.64062 2.01563,-6.28125 l 1.64062,-8.20312 17.95313,0 -0.9375,4.59375 q -1.125,5.76562 -2.48438,8.85937 -1.35937,3.09375 -4.73437,6.60938 -3.375,3.51562 -7.82813,5.29687 -4.45312,1.73438 -10.64062,1.73438 -6,0 -10.26563,-1.73438 -4.21875,-1.73437 -6.1875,-4.73437 -1.92187,-3.04688 -2.20312,-6.65625 -0.23438,-3.65625 1.125,-10.59375 l 3.65625,-18.14063 q 1.64062,-8.15625 4.78125,-12.84375 3.14062,-4.73437 8.625,-7.21875 5.53125,-2.53125 12.04687,-2.53125 7.96875,0 12.51563,3.04688 4.59375,3 5.67187,8.01562 1.125,4.96875 -0.70312,14.01563 l -1.64063,8.25 z m -16.96875,-10.125 0.9375,-4.54688 q 0.9375,-4.82812 0.70313,-6.23437 -0.23438,-1.40625 -1.82813,-1.40625 -1.96875,0 -2.67187,1.21875 -0.70313,1.17187 -1.73438,6.42187 l -0.9375,4.54688 5.53125,0 z"
         style="font-style:italic;font-variant:normal;font-weight:normal;font-stretch:normal;font-size:96px;font-family:Impact;-inkscape-font-specification:'Impact Italic';fill:#ffffff;fill-opacity:1"
         id="path4166"
         inkscape:connector-curvature="0" />
      <path
         d="m 518.07227,425.8763 19.6875,0 q 9.32812,0 13.82812,1.45313 4.5,1.45312 6.5625,5.90625 2.10938,4.40625 0.14063,14.25 -1.35938,6.65625 -3.98438,9.28125 -2.57812,2.625 -9,4.03125 6.51563,1.54687 8.25,5.15625 1.73438,3.5625 0.23438,10.96875 l -1.40625,7.03125 q -1.54688,7.6875 -4.03125,11.39062 -2.48438,3.70313 -6.60938,5.0625 -4.125,1.35938 -16.03125,1.35938 l -22.82812,0 15.1875,-75.89063 z m 17.10937,12.98438 -3.375,16.875 q 1.3125,-0.0469 2.01563,-0.0469 2.90625,0 3.98437,-1.40625 1.07813,-1.45312 2.4375,-8.20312 0.70313,-3.5625 0.32813,-4.96875 -0.375,-1.45313 -1.35938,-1.82813 -0.98437,-0.375 -4.03125,-0.42187 z m -5.71875,28.6875 -4.26562,21.23437 q 4.21875,-0.14062 5.57812,-1.3125 1.40625,-1.17187 2.34375,-5.76562 l 1.40625,-7.07813 q 0.98438,-4.875 0.14063,-5.90625 -0.84375,-1.03125 -5.20313,-1.17187 z"
         style="font-style:italic;font-variant:normal;font-weight:normal;font-stretch:normal;font-size:96px;font-family:Impact;-inkscape-font-specification:'Impact Italic';fill:#ffffff;fill-opacity:1"
         id="path4168"
         inkscape:connector-curvature="0" />
      <path
         d="m 579.94727,463.65755 -17.76563,0 0.79688,-4.17187 q 1.45312,-7.21875 3.89062,-11.10938 2.48438,-3.9375 8.0625,-6.9375 5.625,-3 13.64063,-3 9.60937,0 13.78125,3.42188 4.21875,3.375 4.21875,8.34375 0,4.92187 -3.09375,20.34375 l -6.23438,31.21875 -18.42187,0 1.125,-5.53125 q -2.4375,3.32812 -5.53125,5.01562 -3.04688,1.64063 -6.84375,1.64063 -4.96875,0 -8.57813,-2.76563 -3.5625,-2.8125 -1.6875,-12.23437 l 1.03125,-5.10938 q 1.40625,-6.98437 4.07813,-9.51562 2.71875,-2.53125 12.14062,-5.90625 10.03125,-3.65625 10.92188,-4.92188 0.9375,-1.26562 1.73437,-5.15625 0.98438,-4.875 0.51563,-6.32812 -0.42188,-1.5 -2.10938,-1.5 -1.92187,0 -2.625,1.26562 -0.70312,1.21875 -1.78125,6.42188 l -1.26562,6.51562 z m 4.26562,8.53125 q -5.20312,3.32813 -6.375,5.57813 -1.17187,2.25 -2.01562,6.46875 -0.98438,4.82812 -0.65625,6.23437 0.375,1.40625 2.25,1.40625 1.78125,0 2.53125,-1.07812 0.79687,-1.125 1.73437,-5.8125 l 2.53125,-12.79688 z"
         style="font-style:italic;font-variant:normal;font-weight:normal;font-stretch:normal;font-size:96px;font-family:Impact;-inkscape-font-specification:'Impact Italic';fill:#ffffff;fill-opacity:1"
         id="path4170"
         inkscape:connector-curvature="0" />
      <path
         d="m 637.83789,431.26693 -1.96875,9.79687 5.10938,0 -1.96875,9.84375 -5.10938,0 -6.65625,33.28125 q -1.21875,6.14063 -0.75,6.84375 0.51563,0.70313 5.15625,0.70313 l -2.01562,10.03125 -7.64063,0 q -6.46875,0 -9.14062,-0.51563 -2.625,-0.5625 -4.35938,-2.48437 -1.73437,-1.96875 -1.73437,-4.45313 0,-2.53125 1.82812,-11.8125 l 6.32813,-31.59375 -4.07813,0 1.96875,-9.84375 4.07813,0 1.96875,-9.79687 18.98437,0 z"
         style="font-style:italic;font-variant:normal;font-weight:normal;font-stretch:normal;font-size:96px;font-family:Impact;-inkscape-font-specification:'Impact Italic';fill:#ffffff;fill-opacity:1"
         id="path4172"
         inkscape:connector-curvature="0" />
      <path
         d="m 667.08789,431.26693 -1.96875,9.79687 5.10938,0 -1.96875,9.84375 -5.10938,0 -6.65625,33.28125 q -1.21875,6.14063 -0.75,6.84375 0.51563,0.70313 5.15625,0.70313 l -2.01562,10.03125 -7.64063,0 q -6.46875,0 -9.14062,-0.51563 -2.625,-0.5625 -4.35938,-2.48437 -1.73437,-1.96875 -1.73437,-4.45313 0,-2.53125 1.82812,-11.8125 l 6.32813,-31.59375 -4.07813,0 1.96875,-9.84375 4.07813,0 1.96875,-9.79687 18.98437,0 z"
         style="font-style:italic;font-variant:normal;font-weight:normal;font-stretch:normal;font-size:96px;font-family:Impact;-inkscape-font-specification:'Impact Italic';fill:#ffffff;fill-opacity:1"
         id="path4174"
         inkscape:connector-curvature="0" />
      <path
         d="m 696.94727,425.8763 -15.1875,75.89063 -19.5,0 15.1875,-75.89063 19.5,0 z"
         style="font-style:italic;font-variant:normal;font-weight:normal;font-stretch:normal;font-size:96px;font-family:Impact;-inkscape-font-specification:'Impact Italic';fill:#ffffff;fill-opacity:1"
         id="path4176"
         inkscape:connector-curvature="0" />
      <path
         d="m 737.40039,471.76693 -24.51562,0 -2.67188,13.45312 q -0.84375,4.21875 -0.51562,5.4375 0.375,1.21875 2.10937,1.21875 2.15625,0 3.1875,-1.59375 1.07813,-1.64062 2.01563,-6.28125 l 1.64062,-8.20312 17.95313,0 -0.9375,4.59375 q -1.125,5.76562 -2.48438,8.85937 -1.35937,3.09375 -4.73437,6.60938 -3.375,3.51562 -7.82813,5.29687 -4.45312,1.73438 -10.64062,1.73438 -6,0 -10.26563,-1.73438 -4.21875,-1.73437 -6.1875,-4.73437 -1.92187,-3.04688 -2.20312,-6.65625 -0.23438,-3.65625 1.125,-10.59375 l 3.65625,-18.14063 q 1.64062,-8.15625 4.78125,-12.84375 3.14062,-4.73437 8.625,-7.21875 5.53125,-2.53125 12.04687,-2.53125 7.96875,0 12.51563,3.04688 4.59375,3 5.67187,8.01562 1.125,4.96875 -0.70312,14.01563 l -1.64063,8.25 z m -16.96875,-10.125 0.9375,-4.54688 q 0.9375,-4.82812 0.70313,-6.23437 -0.23438,-1.40625 -1.82813,-1.40625 -1.96875,0 -2.67187,1.21875 -0.70313,1.17187 -1.73438,6.42187 l -0.9375,4.54688 5.53125,0 z"
         style="font-style:italic;font-variant:normal;font-weight:normal;font-stretch:normal;font-size:96px;font-family:Impact;-inkscape-font-specification:'Impact Italic';fill:#ffffff;fill-opacity:1"
         id="path4178"
         inkscape:connector-curvature="0" />
    </g>
  </g>
</svg>
