<?xml version="1.0" encoding="UTF-8" standalone="no"?>
<svg
   xmlns="http://www.w3.org/2000/svg"
   width="552.41943"
   height="295.48859"
   id="svg3388"
   version="1.1"
   viewBox="0 0 552.41943 295.48859">
  <g transform="translate(-68.075996,-102.52675)">
    <path
       d="m 484.75589,213.11899 c -34.69983,-10.89574 -70.10876,-16.07163 -105.85217,-18.6424 9.89218,-20.09884 -0.0782,-37.27804 -19.19709,-43.33571 l -0.90902,-9.01239 8.31588,0 7.62137,6.2342 c 12.89566,-12.10114 10.99393,-23.59848 -1.03808,-34.66338 l -3.46527,5.54691 -9.3595,0.33999 0,-4.50158 5.88696,-6.93231 c -14.85007,-7.38506 -30.21829,-7.49957 -46.10467,-0.33999 l 8.31591,4.85068 3.11799,7.27951 -9.70127,0 -6.58325,-5.19967 c -10.67392,10.63223 -10.44119,23.34423 0.68903,38.13775 l 5.80151,-9.95761 8.06134,0.25635 -0.56177,8.23044 c -23.22229,10.42486 -28.23654,25.0133 -15.03549,43.76841 -38.93957,1.3292 -76.02476,8.84333 -111.85364,20.58248 -14.17555,-15.63167 -29.52192,-11.78298 -41.36126,-35.21254 2.45803,28.56381 -6.62688,36.84517 -5.80875,54.2369 -13.24471,6.10148 -24.93497,14.80097 -35.06165,26.10035 -18.9062,-17.56992 -35.779797,-23.96228 -52.597004,-29.99831 14.544609,21.29896 22.073288,43.37025 33.116304,65.05955 -1.229044,9.15403 1.74717,16.03547 14.02646,17.91898 l 31.55274,46.75009 c -3.7634,9.61035 0.90904,18.18076 10.51759,19.48068 l 13.24471,17.91898 c 54.54234,-8.47949 109.48283,-15.01367 164.02519,-15.31909 63.1073,-0.34183 124.27652,5.53241 188.94559,13.36468 l 12.46295,-20.64428 c 10.25573,-0.64542 16.61902,-9.34674 11.29205,-19.86432 l 30.77283,-45.57923 c 14.41729,-0.64724 16.23541,-7.13778 14.02643,-20.25522 l 28.43658,-62.33244 c -16.10089,11.81751 -35.71619,16.22817 -48.30817,28.43674 -9.89941,-10.12869 -21.65332,-17.79007 -34.67077,-23.76428 1.81811,-23.49866 -7.27228,-32.58905 -7.3996,-51.81522 -13.56464,18.35895 -20.51151,7.89046 -45.37375,32.88176 l 0.0128,-0.005 z m 14.97186,87.96917 c 5.01975,-7.42867 -0.007,-8.17407 -4.38159,-3.70706 -13.87738,19.57343 -8.47403,33.03086 12.81747,40.15406 29.19654,3.60708 37.51239,-8.99765 45.18287,-22.61142 2.93255,-5.69605 0.75994,-9.14856 -3.35981,-1.68354 -9.0122,9.02674 -7.51409,16.88083 -26.77301,19.83524 4.29615,-12.60657 6.83783,-34.28168 22.56232,-57.62345 4.8216,-6.798 10.61762,-6.21438 16.40454,-5.95986 -8.83404,-9.40836 -20.5097,-16.75902 -32.98718,-23.54229 l -4.09796,6.75417 c 18.35168,2.15805 24.87677,13.69922 12.41382,32.83777 -5.71784,17.13721 -30.05466,30.74551 -29.67832,46.59552 -13.71374,-5.07062 -15.99362,-13.46469 -8.09588,-31.03461 l -0.007,-0.0145 z m -121.7258,-86.64179 c 1.73264,5.93038 0.47455,11.91004 -3.77249,17.93879 27.15845,-10.49559 48.49906,-2.50712 48.62082,23.89154 -0.98721,18.92603 -24.56586,36.99918 -18.72073,62.24683 -20.88788,-2.51441 -26.78208,-11.50479 -25.68036,-33.55627 -3.75067,-10.40448 -15.85181,-7.26468 -12.0593,8.60678 8.0741,35.88705 56.54407,47.1864 88.40405,21.59695 7.08689,-5.80875 11.16486,-12.85382 12.22843,-21.14243 0.0581,-10.08252 -7.93228,-8.80496 -11.46848,4.5961 -1.12176,15.27549 -13.06106,22.08603 -32.37814,23.09507 9.66672,-17.24268 3.29617,-34.24534 4.95062,-51.36744 5.24152,-26.89503 30.00556,-44.44293 51.49527,-29.54377 l 0.49811,-12.40677 c -29.91461,-9.97942 -71.18316,-14.30281 -102.1178,-13.96283 l 0,0.007 z m -65.07449,-0.68178 c -1.64169,5.95765 -0.29266,11.91751 4.04709,17.88263 -27.31299,-10.08507 -48.53363,-1.76918 -48.24274,24.62948 1.27088,18.91147 23.0878,39.42813 17.62628,64.7685 20.84427,-2.83438 30.00559,-16.46997 28.59293,-36.41791 3.59253,-10.46085 12.96832,-7.11743 10.79395,8.09588 -7.51963,35.99796 -55.81321,48.03727 -88.06229,22.93873 -7.1723,-5.69605 -11.36299,-12.68476 -12.54836,-20.95154 -0.21452,-10.07761 7.80501,-8.92679 11.53934,4.41791 1.35629,15.26275 13.3938,21.88784 32.72542,22.60598 -9.93579,-17.09539 -3.81979,-34.18896 -5.73062,-51.28198 -5.65238,-26.80955 -25.74396,-38.86142 -51.94246,-28.75671 l -0.68906,-12.39929 c 36.33248,-9.814 70.70507,-15.11898 101.89782,-15.51714 l -0.007,-0.0145 z m -118.77138,89.75253 c -2.06714,-6.69052 0.99268,-7.92502 4.38158,-3.70706 13.05925,19.16073 4.93608,31.25458 -12.81929,40.14679 -29.1965,3.60888 -38.54869,-8.65042 -46.22644,-22.26419 -2.93256,-5.69605 -0.41089,-9.14673 3.70706,-1.68354 9.01221,9.02677 6.47781,19.65888 34.74893,22.26419 -19.89888,-18.84802 -14.11737,-37.05606 -29.84919,-60.39984 -4.82157,-6.79779 -10.61577,-6.21399 -16.40455,-5.95236 10.48305,-8.86313 21.63878,-16.38998 32.98903,-23.54231 l 3.40891,5.36152 c -18.35167,4.58881 -24.18225,15.0846 -11.71933,34.22315 5.71786,17.13718 30.05646,30.74551 29.68011,46.60278 10.93575,-4.72882 15.99184,-13.46469 8.09592,-31.0346"
       style="fill:#c60c30;fill-rule:evenodd;stroke:none;fill-opacity:1" />
  </g>
</svg>
