<?xml version="1.0" encoding="UTF-8" standalone="no"?>
<svg
   xmlns:dc="http://purl.org/dc/elements/1.1/"
   xmlns:cc="http://creativecommons.org/ns#"
   xmlns:rdf="http://www.w3.org/1999/02/22-rdf-syntax-ns#"
   xmlns:svg="http://www.w3.org/2000/svg"
   xmlns="http://www.w3.org/2000/svg"
   xmlns:sodipodi="http://sodipodi.sourceforge.net/DTD/sodipodi-0.dtd"
   xmlns:inkscape="http://www.inkscape.org/namespaces/inkscape"
   version="1.1"
   x="0px"
   y="0px"
   width="100px"
   height="100px"
   viewBox="0 0 100 100"
   enable-background="new 0 0 100 100"
   xml:space="preserve"
   id="svg3057"
   inkscape:version="0.48.5 r10040"
   sodipodi:docname="heart.svg"><metadata
     id="metadata3073"><rdf:RDF><cc:Work
         rdf:about=""><dc:format>image/svg+xml</dc:format><dc:type
           rdf:resource="http://purl.org/dc/dcmitype/StillImage" /><dc:title></dc:title></cc:Work></rdf:RDF></metadata><defs
     id="defs3071" /><sodipodi:namedview
     pagecolor="#ffffff"
     bordercolor="#666666"
     borderopacity="1"
     objecttolerance="10"
     gridtolerance="10"
     guidetolerance="10"
     inkscape:pageopacity="0"
     inkscape:pageshadow="2"
     inkscape:window-width="1042"
     inkscape:window-height="864"
     id="namedview3069"
     showgrid="false"
     inkscape:zoom="5.61"
     inkscape:cx="50"
     inkscape:cy="50"
     inkscape:window-x="0"
     inkscape:window-y="0"
     inkscape:window-maximized="0"
     inkscape:current-layer="svg3057" /><g
     id="Captions" /><g
     id="Your_Icon"
     style="fill:#004274;fill-opacity:1;stroke:none;stroke-opacity:1"><g
       id="g3061"
       style="fill:#004274;fill-opacity:1;stroke:none;stroke-opacity:1"><path
         style="fill:#004274;fill-opacity:1;stroke:none;stroke-opacity:1"
         d="M 30.4375 9.5 C 25.244221 9.4553186 20.551312 11.219188 16.875 13.84375 C 6.651 21.14475 0.465 37.6265 9.125 53.8125 C 16.377 67.3685 30.689 80.62725 48.375 90.15625 C 48.827 90.39925 49.30125 90.5 49.78125 90.5 C 49.853497 90.5 49.928206 90.473943 50 90.46875 C 50.071794 90.473942 50.146503 90.5 50.21875 90.5 C 50.69875 90.5 51.173 90.39925 51.625 90.15625 C 69.311 80.62825 83.623 67.3695 90.875 53.8125 C 99.535 37.6265 93.35 21.14375 83.125 13.84375 C 75.147745 8.1447607 62.449898 6.6010672 50 18.5 C 43.285723 12.082819 36.517177 9.5523077 30.4375 9.5 z M 30.25 15.5 C 36.010459 15.549316 42.063125 18.6125 47.59375 24.5625 C 48.236846 25.255152 49.126703 25.561368 50 25.5 C 50.873218 25.56102 51.762585 25.285263 52.40625 24.59375 C 61.25425 15.07275 71.43 12.86475 79.625 18.71875 C 90.141 26.22675 90.92475 41.036 85.59375 51 C 79.049558 63.233056 66.1027 75.235942 50 84.15625 C 33.896373 75.235014 20.950442 63.233056 14.40625 51 C 9.07525 41.036 9.86 26.22775 20.375 18.71875 C 23.44925 16.52425 26.793725 15.47041 30.25 15.5 z "
         id="path3063" /></g><g
       id="g3065"
       style="fill:#004274;fill-opacity:1;stroke:none;stroke-opacity:1" /></g></svg>