<?xml version="1.0" encoding="UTF-8" standalone="no"?>
<!-- Created with Inkscape (http://www.inkscape.org/) -->

<svg
   xmlns:dc="http://purl.org/dc/elements/1.1/"
   xmlns:cc="http://creativecommons.org/ns#"
   xmlns:rdf="http://www.w3.org/1999/02/22-rdf-syntax-ns#"
   xmlns:svg="http://www.w3.org/2000/svg"
   xmlns="http://www.w3.org/2000/svg"
   xmlns:sodipodi="http://sodipodi.sourceforge.net/DTD/sodipodi-0.dtd"
   xmlns:inkscape="http://www.inkscape.org/namespaces/inkscape"
   id="svg3005"
   version="1.1"
   inkscape:version="0.48.5 r10040"
   width="128"
   height="128"
   xml:space="preserve"
   sodipodi:docname="visibility-photocee.svg"
   inkscape:export-filename="/Users/jelmer/Dropbox/Sites/cover/cover-php/themes/default/images/visibility-photocee.png"
   inkscape:export-xdpi="90"
   inkscape:export-ydpi="90"><metadata
     id="metadata3011"><rdf:RDF><cc:Work
         rdf:about=""><dc:format>image/svg+xml</dc:format><dc:type
           rdf:resource="http://purl.org/dc/dcmitype/StillImage" /><dc:title></dc:title></cc:Work></rdf:RDF></metadata><defs
     id="defs3009"><clipPath
       clipPathUnits="userSpaceOnUse"
       id="clipPath3019"><path
         d="m 0,841.89 595.28,0 L 595.28,0 0,0 0,841.89 z"
         id="path3021"
         inkscape:connector-curvature="0" /></clipPath><clipPath
       clipPathUnits="userSpaceOnUse"
       id="clipPath3027"><path
         d="m 61.7695,682.271 418.2805,0 0,-442.271 -418.2805,0 0,442.271 z"
         id="path3029"
         inkscape:connector-curvature="0" /></clipPath></defs><sodipodi:namedview
     pagecolor="#ffffff"
     bordercolor="#666666"
     borderopacity="1"
     objecttolerance="10"
     gridtolerance="10"
     guidetolerance="10"
     inkscape:pageopacity="0"
     inkscape:pageshadow="2"
     inkscape:window-width="1436"
     inkscape:window-height="855"
     id="namedview3007"
     showgrid="false"
     inkscape:zoom="5.0743638"
     inkscape:cx="62.235939"
     inkscape:cy="64.966065"
     inkscape:window-x="4"
     inkscape:window-y="0"
     inkscape:window-maximized="1"
     inkscape:current-layer="g3013" /><g
     id="g3013"
     inkscape:groupmode="layer"
     inkscape:label="fotocielogo2012-2013.ai"
     transform="matrix(1.25,0,0,-1.25,0,127.99995)"><path
       inkscape:connector-curvature="0"
       id="path3041"
       style="fill:#000000;fill-opacity:1;fill-rule:nonzero;stroke:none"
       d="m 28.208087,43.534303 c 0.09329,6.752607 -3.707595,15.732164 -9.089588,14.591181 -9.1661323,-1.944693 -2.499637,-23.506153 4.544794,-22.96317 2.786676,0.21528 4.484994,4.119019 4.544794,8.371989 m 8.132789,-2.870396 c 2.533125,4.04965 0.02631,17.076466 -4.305594,20.331973 -3.635835,2.731661 -6.314872,0.344448 -9.807187,-0.956798 5.209769,-4.386923 8.692516,-14.574438 5.740792,-23.44157 3.033052,1.394534 6.680848,1.361046 8.371989,4.066395 m 1.674398,2.391997 c 4.621338,2.52834 4.214699,18.296384 -3.587995,17.700777 2.270005,-4.697882 5.090169,-10.74485 3.587995,-17.700777 m 7.415191,-19.614375 c 0.06219,2.121701 -1.889678,5.518337 -2.631197,7.41519 -0.841983,2.150406 -1.927949,5.465713 -3.827195,6.458392 -4.269714,2.231733 -9.668451,-1.308422 -11.720785,-3.587995 0.342056,-7.754854 1.432806,-16.621987 7.415191,-18.179177 4.496954,-1.169686 10.668306,4.595026 10.763986,7.89359 m 10.285586,24.159169 c 1.239055,5.458537 2.528341,10.866842 2.152798,17.939976 -1.767686,2.162366 -5.881921,3.750652 -9.807188,5.262394 -3.997027,1.540446 -8.498765,2.989996 -11.720785,3.348795 -2.34894,0.260728 -2.705348,-5.013625 -4.305594,-6.219192 -3.119164,0.0096 -4.860538,-1.358654 -4.544794,-4.783993 3.2579,0.849158 4.386922,-1.849014 6.458392,-1.913598 0.791751,-0.02392 1.559582,0.818063 2.631196,0.717599 5.867569,-0.554943 8.395909,-14.112782 3.827195,-19.135975 -1.169686,-1.286894 -3.260292,-1.181647 -3.587995,-3.348796 1.224702,-0.449695 2.116917,-1.231878 3.827195,-1.195998 1.76051,6.37228 7.065959,9.19962 15.06958,9.328788 M 80.592819,22.245531 c 2.774717,8.297837 -3.272252,23.20237 -11.959984,17.461577 0.736735,-5.324585 2.442228,-10.950562 1.913597,-16.743978 -5.580529,4.700274 -2.112133,16.062259 -7.65439,21.049572 -5.128441,4.614162 -19.647862,1.085967 -20.571173,-5.262393 -0.56212,-3.870251 2.023629,-6.793271 3.348795,-9.089588 1.91599,-3.320092 3.214844,-5.441793 4.544794,-8.132789 2.389605,-4.831834 6.26464,-15.7130281 13.873583,-14.5911816 6.125904,0.9017829 14.514637,9.3574916 16.504778,15.3087806 m 0.717599,28.225563 c 8.386341,10.228179 5.688169,28.933595 -5.501593,35.401554 -13.005287,7.518046 -32.086246,0.832415 -35.162354,-11.242385 2.889532,-1.289287 5.776672,-2.303493 9.328788,-3.587996 2.502029,-0.904174 7.66635,-2.035589 8.850388,-4.305594 2.844085,-5.448969 -1.573934,-12.318784 -0.956798,-19.135975 7.723758,-5.207378 19.025943,-2.513989 23.441569,2.870396 M 65.044839,91.135041 C 78.815565,90.211731 89.864199,78.431146 89.204008,63.866277 88.718433,53.150131 82.958504,47.129474 75.569626,42.338305 80.188572,38.147526 85.883916,30.536192 83.463215,21.527932 81.267362,13.35687 71.563031,4.5878095 66.719237,-4.058e-5 67.142621,2.8464357 70.173281,5.1571047 71.503231,7.8935492 60.440245,-0.02635255 51.197569,13.863973 47.104863,21.527932 41.770709,16.576498 39.845152,8.2164688 35.384078,2.3919563 36.180613,6.0612796 38.326234,10.452986 39.928872,14.112741 28.545359,9.0680197 26.658073,24.087368 25.81609,33.727116 14.965992,31.69631 9.2275916,51.7843 16.248103,58.843083 c 1.22231,1.229487 2.55226,0.954407 4.783993,1.435198 2.033198,0.440128 3.267468,2.026022 5.501593,2.631197 -0.01674,3.765003 1.492606,6.00152 5.023194,6.219192 1.332342,2.095389 2.088213,4.769642 4.305594,5.979992 1.444766,0.0885 2.643157,-0.06698 3.827195,-0.2392 2.820164,9.828716 12.940703,17.097994 25.355167,16.265579" /><path
       inkscape:connector-curvature="0"
       id="path3069"
       style="fill:#000000;fill-opacity:1;fill-rule:nonzero;stroke:none"
       d="m 35.384078,70.324669 c 1.80835,1.607422 6.699983,0.626703 6.219192,-2.391997 -2.229341,-1.296462 -6.841111,0.07654 -6.219192,2.391997" /><path
       inkscape:connector-curvature="0"
       id="path3093"
       style="fill:#000000;fill-opacity:1;fill-rule:nonzero;stroke:none"
       d="m 19.596898,56.211887 c 3.540155,0.590823 6.963103,-7.207087 6.936791,-12.438384 -0.01674,-3.001956 -0.937663,-6.448824 -3.109596,-6.697591 -2.989996,-0.342056 -6.221584,5.800592 -6.697591,10.046387 -0.420992,3.757827 -0.07415,8.599229 2.870396,9.089588" /></g></svg>