<?xml version="1.0" encoding="UTF-8"?>
<!DOCTYPE svg PUBLIC "-//W3C//DTD SVG 1.1//EN" "http://www.w3.org/Graphics/SVG/1.1/DTD/svg11.dtd">
<!-- Creator: CorelDRAW 2020 (64-Bit) -->
<svg xmlns="http://www.w3.org/2000/svg" xml:space="preserve" width="1807px" height="1807px" version="1.1" shape-rendering="geometricPrecision" text-rendering="geometricPrecision" image-rendering="optimizeQuality" fill-rule="evenodd" clip-rule="evenodd"
viewBox="0 0 1805.32 1805.32"
 xmlns:xlink="http://www.w3.org/1999/xlink"
 xmlns:xodm="http://www.corel.com/coreldraw/odm/2003">
 <g id="Layer_x0020_1">
  <metadata id="CorelCorpID_0Corel-Layer"/>
  <circle fill="#C8102E" cx="902.66" cy="902.66" r="902.66"/>
  <path fill="white" fill-rule="nonzero" d="M732.52 1414.63c-19.04,2.18 -36.52,-11.56 -38.39,-30.91 -2.19,-19.04 11.55,-36.52 30.9,-38.4l348.7 -39.33c19.04,-2.19 36.53,11.55 38.4,30.9 2.18,19.05 -11.55,36.53 -30.91,38.4l-348.7 39.34zm63.06 185.74c-19.35,0 -34.96,-15.61 -34.96,-34.96 0,-19.36 15.61,-34.97 34.96,-34.97l217.9 0c19.35,0 34.96,15.61 34.96,34.97 0,19.35 -15.61,34.96 -34.96,34.96l-217.9 0zm-63.06 -86.78c-19.04,2.18 -36.52,-11.56 -38.39,-30.91 -2.19,-19.04 11.55,-36.52 30.9,-38.4l348.7 -39.33c19.04,-2.19 36.53,11.55 38.4,30.9 2.18,19.05 -11.55,36.53 -30.91,38.4l-348.7 39.34zm170.45 -1308.64c122.68,0 233.51,49.63 313.74,129.86 80.22,80.23 129.86,191.37 129.86,313.74 0,118 -49.95,204.47 -101.77,294.07 -50.88,88.03 -103.64,179.19 -103.64,305.93 0,19.35 -15.61,34.96 -34.96,34.96l-407.08 0c-19.35,0 -34.96,-15.61 -34.96,-34.96 0,-126.43 -52.76,-217.9 -103.65,-305.93 -51.82,-89.6 -101.76,-176.07 -101.76,-294.07 0,-122.69 49.63,-233.51 129.86,-313.74 80.23,-80.23 191.36,-129.86 313.74,-129.86l0.62 0zm264.41 179.5c-67.74,-67.74 -161.08,-109.57 -264.41,-109.57 -103.33,0 -196.67,41.83 -264.41,109.57 -67.74,67.74 -109.58,161.08 -109.58,264.41 0,99.58 45.27,177.94 92.1,259.11 50.88,88.03 103.64,179.5 112.07,305.93l339.64 0c8.43,-126.43 61.19,-217.59 112.07,-305.93 46.83,-81.17 92.09,-159.84 92.09,-259.11 0,-103.33 -41.83,-196.67 -109.57,-264.41l0 0z"/>
 </g>
</svg>
