<?xml version="1.0" encoding="UTF-8" standalone="no"?>
<svg
   xmlns:dc="http://purl.org/dc/elements/1.1/"
   xmlns:cc="http://creativecommons.org/ns#"
   xmlns:rdf="http://www.w3.org/1999/02/22-rdf-syntax-ns#"
   xmlns:svg="http://www.w3.org/2000/svg"
   xmlns="http://www.w3.org/2000/svg"
   xmlns:sodipodi="http://sodipodi.sourceforge.net/DTD/sodipodi-0.dtd"
   xmlns:inkscape="http://www.inkscape.org/namespaces/inkscape"
   version="1.1"
   x="0px"
   y="0px"
   width="100px"
   height="100px"
   viewBox="0 0 100 100"
   enable-background="new 0 0 100 100"
   xml:space="preserve"
   id="svg3057"
   inkscape:version="0.48.5 r10040"
   sodipodi:docname="heart-filled.svg"><metadata
     id="metadata3073"><rdf:RDF><cc:Work
         rdf:about=""><dc:format>image/svg+xml</dc:format><dc:type
           rdf:resource="http://purl.org/dc/dcmitype/StillImage" /><dc:title></dc:title></cc:Work></rdf:RDF></metadata><defs
     id="defs3071" /><sodipodi:namedview
     pagecolor="#ffffff"
     bordercolor="#666666"
     borderopacity="1"
     objecttolerance="10"
     gridtolerance="10"
     guidetolerance="10"
     inkscape:pageopacity="0"
     inkscape:pageshadow="2"
     inkscape:window-width="1042"
     inkscape:window-height="864"
     id="namedview3069"
     showgrid="false"
     inkscape:zoom="5.61"
     inkscape:cx="50"
     inkscape:cy="50"
     inkscape:window-x="0"
     inkscape:window-y="0"
     inkscape:window-maximized="0"
     inkscape:current-layer="svg3057" /><g
     id="Captions" /><g
     id="Your_Icon"
     style="fill:#004274;fill-opacity:1;stroke:none;stroke-opacity:1"><g
       id="g3061"
       style="fill:#004274;fill-opacity:1;stroke:none;stroke-opacity:1"><path
         style="fill:#c60c30;fill-opacity:1;stroke:none"
         d="m 30.4375,9.5 c -5.193279,-0.044681 -9.886188,1.719188 -13.5625,4.34375 -10.224,7.301 -16.41,23.78275 -7.75,39.96875 7.252,13.556 21.564,26.81475 39.25,36.34375 0.452,0.243 0.92625,0.34375 1.40625,0.34375 0.07225,0 0.146956,-0.02606 0.21875,-0.03125 0.07179,0.0052 0.146503,0.03125 0.21875,0.03125 0.48,0 0.95425,-0.10075 1.40625,-0.34375 C 69.311,80.62825 83.623,67.3695 90.875,53.8125 99.535,37.6265 93.35,21.14375 83.125,13.84375 75.147745,8.1447607 62.449898,6.6010672 50,18.5 43.285723,12.082819 36.517177,9.5523077 30.4375,9.5 z"
         id="path3063"
         inkscape:connector-curvature="0"
         sodipodi:nodetypes="scccscsccccs" /></g><g
       id="g3065"
       style="fill:#004274;fill-opacity:1;stroke:none;stroke-opacity:1" /></g></svg>