<?xml version="1.0" encoding="UTF-8" standalone="no"?>
<!-- Generator: Adobe Illustrator 16.0.4, SVG Export Plug-In . SVG Version: 6.00 Build 0)  -->

<svg
   xmlns:dc="http://purl.org/dc/elements/1.1/"
   xmlns:cc="http://creativecommons.org/ns#"
   xmlns:rdf="http://www.w3.org/1999/02/22-rdf-syntax-ns#"
   xmlns:svg="http://www.w3.org/2000/svg"
   xmlns="http://www.w3.org/2000/svg"
   xmlns:sodipodi="http://sodipodi.sourceforge.net/DTD/sodipodi-0.dtd"
   xmlns:inkscape="http://www.inkscape.org/namespaces/inkscape"
   version="1.1"
   id="Capa_1"
   x="0px"
   y="0px"
   width="128"
   height="128"
   viewBox="0 0 128 128"
   enable-background="new 0 0 216 146"
   xml:space="preserve"
   inkscape:version="0.48.5 r10040"
   sodipodi:docname="visibility-member.svg"
   inkscape:export-filename="/Users/jelmer/Dropbox/Sites/cover/cover-php/themes/default/images/visibility-member.png"
   inkscape:export-xdpi="90"
   inkscape:export-ydpi="90"><metadata
     id="metadata3089"><rdf:RDF><cc:Work
         rdf:about=""><dc:format>image/svg+xml</dc:format><dc:type
           rdf:resource="http://purl.org/dc/dcmitype/StillImage" /><dc:title></dc:title></cc:Work></rdf:RDF></metadata><defs
     id="defs3087" /><sodipodi:namedview
     pagecolor="#ffffff"
     bordercolor="#666666"
     borderopacity="1"
     objecttolerance="10"
     gridtolerance="10"
     guidetolerance="10"
     inkscape:pageopacity="0"
     inkscape:pageshadow="2"
     inkscape:window-width="1194"
     inkscape:window-height="804"
     id="namedview3085"
     showgrid="false"
     inkscape:zoom="1.5416667"
     inkscape:cx="-8.7567568"
     inkscape:cy="73"
     inkscape:window-x="156"
     inkscape:window-y="53"
     inkscape:window-maximized="0"
     inkscape:current-layer="Capa_1" /><g
     id="g3079"
     transform="matrix(0.91407678,0,0,0.91407678,-34.719378,-0.49177296)"><path
       d="m 107.999,62.777554 c 7.24829,0 13.43509,-2.564338 18.56125,-7.691337 5.12784,-5.126998 7.69133,-11.3138 7.69133,-18.561245 0,-7.246605 -2.56349,-13.433408 -7.69133,-18.561245 -5.127,-5.126999 -11.31464,-7.690498 -18.56125,-7.690498 -7.24661,0 -13.434247,2.563499 -18.561245,7.690498 -5.127838,5.127837 -7.691337,11.31464 -7.691337,18.561245 0,7.247445 2.563499,13.434247 7.691337,18.561245 5.127838,5.126999 11.314635,7.691337 18.561245,7.691337 z"
       id="path3081"
       style="fill:none;stroke:#000000;stroke-width:8.39116001;stroke-linejoin:miter;stroke-miterlimit:4;stroke-opacity:1;stroke-dasharray:none"
       inkscape:connector-curvature="0" /><path
       d="m 165.07,106.037 c -0.191,-2.743 -0.571,-5.703 -1.141,-8.881 -0.57,-3.178 -1.291,-6.124 -2.16,-8.84 -0.869,-2.715 -2.037,-5.363 -3.504,-7.943 -1.466,-2.58 -3.15,-4.78 -5.052,-6.6 -1.902,-1.82 -4.223,-3.272 -6.965,-4.358 -2.744,-1.086 -5.772,-1.63 -9.085,-1.63 -0.489,0 -1.63,0.584 -3.422,1.752 -1.792,1.168 -3.815,2.472 -6.069,3.911 -2.254,1.438 -5.188,2.743 -8.799,3.909 -3.612,1.168 -7.237,1.752 -10.877,1.752 -3.639,0 -7.264,-0.584 -10.876,-1.752 -3.611,-1.166 -6.545,-2.471 -8.799,-3.909 -2.254,-1.439 -4.277,-2.743 -6.069,-3.911 -1.793,-1.168 -2.933,-1.752 -3.422,-1.752 -3.313,0 -6.341,0.544 -9.084,1.63 -2.743,1.086 -5.065,2.539 -6.966,4.358 -1.901,1.82 -3.585,4.02 -5.051,6.6 -1.466,2.58 -2.634,5.229 -3.503,7.943 -0.869,2.716 -1.589,5.662 -2.159,8.84 -0.571,3.178 -0.951,6.137 -1.141,8.881 -0.19,2.744 -0.285,5.554 -0.285,8.433 0,6.517 1.983,11.664 5.948,15.439 3.965,3.774 9.234,5.661 15.806,5.661 h 71.208 c 6.572,0 11.84,-1.887 15.806,-5.661 3.966,-3.775 5.948,-8.921 5.948,-15.439 0,-2.879 -0.095,-5.69 -0.287,-8.433 z"
       id="path3083"
       style="fill:none;stroke:#000000;stroke-width:10;stroke-miterlimit:4;stroke-opacity:1;stroke-dasharray:none"
       inkscape:connector-curvature="0" /></g></svg>