<?xml version="1.0" encoding="UTF-8" standalone="no"?>
<!-- Generator: Adobe Illustrator 16.0.4, SVG Export Plug-In . SVG Version: 6.00 Build 0)  -->

<svg
   xmlns:dc="http://purl.org/dc/elements/1.1/"
   xmlns:cc="http://creativecommons.org/ns#"
   xmlns:rdf="http://www.w3.org/1999/02/22-rdf-syntax-ns#"
   xmlns:svg="http://www.w3.org/2000/svg"
   xmlns="http://www.w3.org/2000/svg"
   xmlns:sodipodi="http://sodipodi.sourceforge.net/DTD/sodipodi-0.dtd"
   xmlns:inkscape="http://www.inkscape.org/namespaces/inkscape"
   version="1.1"
   id="Capa_1"
   x="0px"
   y="0px"
   width="128"
   height="128"
   viewBox="0 0 128 128"
   enable-background="new 0 0 216 146"
   xml:space="preserve"
   inkscape:version="0.48.5 r10040"
   sodipodi:docname="visibility-public.svg"><metadata
     id="metadata9"><rdf:RDF><cc:Work
         rdf:about=""><dc:format>image/svg+xml</dc:format><dc:type
           rdf:resource="http://purl.org/dc/dcmitype/StillImage" /></cc:Work></rdf:RDF></metadata><defs
     id="defs7" /><sodipodi:namedview
     pagecolor="#ffffff"
     bordercolor="#666666"
     borderopacity="1"
     objecttolerance="10"
     gridtolerance="10"
     guidetolerance="10"
     inkscape:pageopacity="0"
     inkscape:pageshadow="2"
     inkscape:window-width="1436"
     inkscape:window-height="855"
     id="namedview5"
     showgrid="false"
     inkscape:zoom="1.5416667"
     inkscape:cx="25.297297"
     inkscape:cy="73"
     inkscape:window-x="4"
     inkscape:window-y="0"
     inkscape:window-maximized="1"
     inkscape:current-layer="Capa_1" /><path
     d="M 113.357,42.388407 C 108.26015,33.655895 101.34593,26.741669 92.61342,21.644819 83.87908,16.54797 74.34401,14 64.00182,14 53.660546,14 44.123652,16.54797 35.390229,21.644819 26.656806,26.740758 19.74258,33.654984 14.64573,42.388407 9.54797,51.12183 7,60.659635 7,71 c 0,10.340365 2.54888,19.877259 7.644819,28.61159 5.09685,8.73069 12.011076,15.64674 20.744499,20.74359 C 44.122741,125.45203 53.659635,128 64.00091,128 c 10.34128,0 19.87908,-2.54797 28.61159,-7.64482 8.73252,-5.09594 15.64674,-12.01107 20.74359,-20.74359 C 118.45203,90.877259 121,81.339454 121,71 121,60.659635 118.45203,51.120919 113.357,42.388407 z M 71.13012,100.99079 c -0.49647,-0.59303 -0.66864,-1.0886 -0.51925,-1.48578 -0.0492,0.24778 -0.22318,0.47006 -0.51925,0.66774 -0.24778,-0.29698 -0.69415,-0.66865 -1.33638,-1.1132 -0.64405,-0.44637 -1.08861,-0.81714 -1.33639,-1.11502 -0.0993,-0.14758 -0.23503,-0.35801 -0.40811,-0.63039 -0.17308,-0.27238 -0.39536,-0.63039 -0.66774,-1.07585 -0.27055,-0.44546 -0.46823,-0.82898 -0.59304,-1.15146 -0.12298,-0.32157 -0.13391,-0.5065 -0.0364,-0.55569 -0.94012,0.39718 -2.3011,0.1248 -4.08204,-0.81622 -0.346166,-0.19768 -0.866327,-0.71693 -1.558661,-1.558666 -0.692333,-0.84082 -1.410174,-1.211583 -2.15261,-1.113199 -0.246872,0.04919 -0.581196,0.135734 -1.002062,0.259625 -0.419955,0.123891 -0.778875,0.184926 -1.07585,0.184926 -0.296974,0 -0.693244,-0.09838 -1.187898,-0.296975 -0.395359,-0.148487 -0.927363,-0.433619 -1.5951,-0.853574 -0.667738,-0.419955 -1.125953,-0.681402 -1.372825,-0.778875 -0.643141,-0.346167 -0.964712,-0.51925 -0.964712,-0.51925 L 49.533874,88.446804 C 49.236899,88.298317 48.927171,88.064199 48.6056,87.741717 48.284029,87.420147 48.074507,87.085823 47.975212,86.739656 47.876828,86.442681 47.752937,85.848732 47.604449,84.957808 47.455962,84.066884 47.257372,83.423743 47.0105,83.028384 46.714436,82.53373 46.293571,82.039076 45.748813,81.544422 c -0.543846,-0.494655 -1.0385,-0.742437 -1.483962,-0.742437 0.39627,0 0.39627,-0.332502 0,-1.002062 -0.39627,-0.669559 -0.742436,-1.15146 -1.039411,-1.447523 -0.09929,-0.0993 -0.39627,-0.419955 -0.890924,-0.965623 -0.494654,-0.544758 -0.91552,-1.012994 -1.261687,-1.410174 -0.346166,-0.39627 -0.644052,-0.853575 -0.890924,-1.373736 -0.246871,-0.520161 -0.296974,-0.951958 -0.148487,-1.299036 0.04919,-0.04919 0,-0.123891 -0.148487,-0.222276 -0.148488,-0.09838 -0.333414,-0.19859 -0.5566,-0.296974 -0.222275,-0.09839 -0.432708,-0.184926 -0.630388,-0.259625 -0.19859,-0.07379 -0.347078,-0.111138 -0.445462,-0.111138 0.09929,0.199501 0.210433,0.5566 0.334324,1.076761 0.123892,0.520161 0.259625,0.903677 0.408113,1.15146 0.09929,0.196768 0.51925,0.91552 1.261686,2.150788 1.287194,2.077912 1.880233,3.613799 1.781848,4.603107 -0.296974,0.09747 -0.495565,0.0501 -0.593949,-0.148487 -0.09929,-0.196769 -0.173994,-0.469147 -0.223186,-0.816225 -0.04919,-0.345256 -0.09838,-0.593038 -0.148488,-0.741525 -0.148487,-0.297886 -0.532003,-0.619457 -1.150549,-0.966535 -0.618545,-0.345255 -1.002061,-0.692333 -1.150549,-1.039411 0.0501,0 0.111138,-0.02277 0.185837,-0.07379 0.0747,-0.0501 0.136645,-0.07379 0.185837,-0.07379 0.0501,-0.444551 -0.209522,-1.013904 -0.778875,-1.707149 -0.569353,-0.693244 -0.803471,-1.187898 -0.705087,-1.484873 -0.39627,-0.296975 -0.742437,-0.87817 -1.039411,-1.743587 -0.296975,-0.866328 -0.544758,-1.422928 -0.742437,-1.67071 -0.197679,-0.296064 -0.444551,-0.555689 -0.741526,-0.778876 -0.296974,-0.222275 -0.667737,-0.469147 -1.113199,-0.741525 -0.445462,-0.272379 -0.742437,-0.457305 -0.890924,-0.5566 -0.09929,-0.04828 -0.296975,-0.270556 -0.593949,-0.666826 -1.63245,-1.979528 -2.127104,-3.043535 -1.483962,-3.192022 -0.643142,0.148487 -1.175145,-0.333413 -1.596011,-1.447524 -0.420866,-1.113199 -0.5566,-1.967685 -0.408113,-2.560723 l -0.148487,-0.07379 c 0.0501,-0.19859 0.0747,-0.778875 0.0747,-1.744498 0,-0.965623 0.06195,-1.843794 0.185837,-2.635422 0.123891,-0.791629 0.35892,-1.187899 0.705087,-1.187899 -0.346167,0.04919 -0.605792,-0.260536 -0.778875,-0.927362 -0.173084,-0.668649 -0.185837,-1.126864 -0.03735,-1.373736 0.04919,-0.148487 0.272379,-0.04828 0.667738,0.296975 0.395359,0.345256 0.618545,0.569353 0.667737,0.667737 0.643142,-0.347078 0.890924,-0.791629 0.742437,-1.336386 -0.0993,-0.197679 -0.618546,-0.716929 -1.558662,-1.558661 -2.128014,-1.384667 -3.216618,-2.053315 -3.26581,-2.004123 0.296064,-0.543847 0.222276,-1.013905 -0.223186,-1.410174 -0.494654,0.296974 -0.778875,0.370762 -0.853574,0.223186 -0.07379,-0.148487 -0.135734,-0.419955 -0.185837,-0.816225 -0.04919,-0.395359 -0.173084,-0.617634 -0.370763,-0.667737 -0.247783,-0.04919 -0.544757,-0.246872 -0.890924,-0.593038 4.403605,-7.026275 10.217385,-12.518483 17.441339,-16.477538 0.296974,-0.04919 0.84082,-0.07379 1.632449,-0.07379 0.395359,0.04919 0.767033,0.173083 1.1132,0.370763 0.346166,0.197679 0.705087,0.470058 1.075849,0.816224 0.371674,0.345256 0.655895,0.593039 0.853575,0.741526 0.0993,-0.296975 -0.0246,-0.742437 -0.370763,-1.336386 0.09838,-0.296974 0.643141,-0.593949 1.632449,-0.890924 1.137796,-0.148487 1.880232,-0.123891 2.226399,0.0747 -0.296063,-0.445462 -0.790718,-1.064007 -1.483962,-1.855636 l -0.370763,0.370763 c -0.39627,-0.346167 -1.43477,-0.173083 -3.117323,0.51925 -0.09838,0.04919 -0.346166,0.185837 -0.742436,0.408113 -0.395359,0.222275 -0.717841,0.383516 -0.964712,0.4819 -0.296975,0.0993 -0.593949,0.123892 -0.890924,0.0747 2.374886,-1.286282 4.70058,-2.302008 6.977082,-3.043534 0.147576,0.09838 0.395359,0.308817 0.741526,0.630388 0.346166,0.32157 0.618545,0.556599 0.816224,0.705087 -0.148487,-0.09838 -0.247782,-0.0501 -0.296974,0.148487 -0.19768,0.593038 -0.19768,1.087692 0,1.483962 0.246871,0.347078 0.581195,0.543847 1.002061,0.59395 0.420866,0.04919 0.927363,0.0246 1.521312,-0.0747 0.593949,-0.09838 0.990219,-0.148487 1.187899,-0.148487 l 0.742436,0.0747 c 1.583258,0.148488 2.201803,0 1.855636,-0.445462 0.148488,0.198591 0.321571,0.606703 0.51925,1.225248 0.19768,0.618546 0.420866,1.052165 0.667738,1.299037 0.247782,-0.198591 0.296974,-0.544757 0.148487,-1.039411 -0.148487,-0.494655 -0.148487,-0.841732 0,-1.039412 0.04919,-0.09838 0.19768,-0.19859 0.445462,-0.296974 0.247783,-0.09839 0.532004,-0.209522 0.853574,-0.333414 0.321571,-0.123891 0.532004,-0.210433 0.631299,-0.259625 0.296975,-0.19859 0.09838,-0.544757 -0.593949,-1.039411 -0.09929,-0.0501 -0.308817,-0.123891 -0.630388,-0.223186 -0.321571,-0.09747 -0.606703,-0.19768 -0.853574,-0.296064 -0.246872,-0.09838 -0.506497,-0.235029 -0.778875,-0.408112 -0.272379,-0.173084 -0.39627,-0.370763 -0.371674,-0.59395 0.0246,-0.223186 0.161241,-0.507407 0.408112,-0.853574 0.296975,-0.246872 0.779786,-0.346167 1.447524,-0.296975 0.667737,0.04919 1.175145,0.172173 1.521312,0.370763 1.336385,0.742437 1.534065,1.411085 0.593949,2.004123 0.495565,0.04919 1.089514,0.246872 1.781845,0.593039 0.69234,0.347078 0.96471,0.71784 0.81623,1.11411 0.39627,-0.742436 0.79163,-1.11411 1.1879,-1.11411 0.24687,0.0501 0.48281,0.384427 0.70508,1.002972 0.22228,0.618546 0.35801,0.951959 0.4072,1.002062 0.39718,0.543846 0.79072,0.667738 1.18881,0.370763 0.39536,-0.296975 0.80347,-0.729683 1.22434,-1.299036 0.41996,-0.568443 0.65498,-0.828068 0.70418,-0.778876 -0.49466,-0.196768 -0.54567,-0.395358 -0.14758,-0.593038 0.74061,-0.445462 1.40926,-0.569353 2.00321,-0.370763 0.14758,0.09839 0.34708,0.321571 0.59304,0.666827 0.44364,0.891835 0.36894,1.31179 -0.22227,1.262597 0.44455,0.39627 0.62856,0.890924 0.55568,1.483963 -0.0738,0.593949 -0.45912,0.866328 -1.15146,0.816224 -0.24687,0 -0.6067,-0.123891 -1.07676,-0.370762 -0.47006,-0.246872 -0.82898,-0.382606 -1.07676,-0.408113 -0.24778,-0.02551 -0.59395,0.111138 -1.03941,0.408113 -0.19768,0.247782 -0.4573,0.668648 -0.77887,1.261686 -0.32249,0.594861 -0.60671,1.014816 -0.85449,1.261687 -0.74153,0.742437 -1.97953,1.014815 -3.711271,0.816225 0.148491,0 0.135731,0.148487 -0.03735,0.445462 -0.173994,0.296974 -0.408112,0.631299 -0.705087,1.002061 -0.296975,0.370763 -0.470058,0.581196 -0.51925,0.630388 -0.445462,0.494654 -0.742437,1.064008 -0.890924,1.707149 0,0.09929 -0.0246,0.433619 -0.0747,1.002062 -0.0501,0.569353 -0.148488,1.002972 -0.296975,1.299036 0.593949,-0.148487 1.064007,0.149398 1.410174,0.890924 0.296975,0.693244 0.296975,1.064007 0,1.11411 1.633363,-0.246871 3.068133,-0.148487 4.306133,0.296975 1.78094,0.643141 2.79666,1.286283 3.04353,1.929424 0.29607,-0.445462 1.013,-0.470969 2.1517,-0.0747 0.44547,0.246871 0.83991,0.990219 1.1879,2.226399 0.19768,0.741525 0.53201,1.385578 1.00206,1.929424 0.47097,0.543846 0.97656,0.692333 1.52223,0.445462 l 0.22136,-0.148487 c 0.19859,-0.09838 0.35892,-0.185837 0.48281,-0.259626 0.12389,-0.07379 0.25963,-0.173083 0.4072,-0.296974 0.1494,-0.123891 0.23594,-0.235029 0.25963,-0.333413 0.0237,-0.09839 -0.0127,-0.198591 -0.11023,-0.296975 -0.34707,-0.296975 -0.6067,-0.705087 -0.77887,-1.224337 -0.17217,-0.51925 -0.13482,-0.977466 0.11114,-1.373736 0.14848,-0.197679 0.54384,-0.494654 1.18789,-0.890924 0.64315,-0.396269 1.03942,-0.791628 1.18699,-1.187898 0.1995,-0.643141 -0.0483,-1.175145 -0.74061,-1.596011 -0.69325,-0.419955 -1.04032,-0.803471 -1.04032,-1.150549 0,-0.247783 0.16124,-0.543846 0.4819,-0.890924 0.32248,-0.346167 0.45912,-0.668648 0.40902,-0.964712 0,-0.149398 -0.0874,-0.458215 -0.25963,-0.928273 C 75.224,37.16766 75.1238,36.821493 75.0992,36.599217 c -0.0246,-0.223186 0.0875,-0.482811 0.33341,-0.778875 0.34526,-0.19859 1.16239,-0.185837 2.44868,0.03644 1.28628,0.223186 2.12801,0.458215 2.52428,0.705087 0.1494,0.09838 0.47097,0.246871 0.96562,0.445462 0.49466,0.196768 0.92828,0.407201 1.29995,0.630388 0.36894,0.222275 0.58029,0.431797 0.62857,0.630387 h -0.36985 c 0.34616,0.297886 0.5566,0.643142 0.62947,1.039412 0.0747,0.39718 -0.11022,0.693244 -0.55478,0.891835 0.29516,-0.0501 0.69325,0.0246 1.1879,0.222275 0.79163,0.296975 0.81623,0.569353 0.0738,0.816225 0.14849,-0.0501 0.35801,-0.09838 0.62948,-0.148488 0.27238,-0.04919 0.4819,-0.123891 0.6313,-0.222275 0.0975,-0.0501 0.22227,-0.135734 0.36985,-0.259625 0.1494,-0.123891 0.25962,-0.19859 0.33432,-0.222276 0.0747,-0.0246 0.18493,-0.0501 0.33433,-0.0747 0.14757,-0.0246 0.29515,0.01275 0.44364,0.111138 0.051,0 0.16124,-0.123891 0.33432,-0.370763 0.17126,-0.246871 0.35892,-0.494654 0.55569,-0.741525 0.19768,-0.246872 0.36985,-0.370763 0.51925,-0.370763 0.14758,0 0.28422,0.06103 0.4072,0.184926 0.1248,0.123891 0.22228,0.259625 0.29698,0.408112 0.0738,0.148487 0.14757,0.309728 0.22227,0.481901 0.0747,0.173083 0.13483,0.309728 0.18493,0.408112 0.0984,0.246872 0.33432,0.507408 0.70417,0.778875 0.37077,0.271468 0.6058,0.532004 0.70509,0.778875 0.0501,0.148488 0.14667,0.520162 0.29606,1.114111 0.14758,0.593949 0.34708,1.002061 0.59304,1.224337 0.24779,0.223186 0.61855,0.408112 1.1132,0.5566 0.0993,0.0501 0.32248,0.0246 0.66774,-0.07379 0.34617,-0.09929 0.6313,-0.123891 0.85357,-0.0747 0.2241,0.04919 0.33433,0.246872 0.33433,0.59395 0.29697,-0.296975 0.44455,-0.495565 0.44455,-0.59395 0.0501,0.643142 0.20952,1.163303 0.48281,1.558662 0.27238,0.395359 0.70509,0.569353 1.29904,0.51925 l -0.14849,1.63336 c -0.14758,0.246872 -0.51925,0.431798 -1.11411,0.555689 -0.59395,0.123891 -0.96471,0.23594 -1.11411,0.334324 -0.14758,0.04919 -0.50741,0.346167 -1.07585,0.890924 -0.56935,0.544757 -0.80347,0.866328 -0.70509,0.964712 -0.83991,-0.940116 -2.10251,-1.212494 -3.78415,-0.816225 -1.88023,0.296975 -3.16742,0.59395 -3.85885,0.890924 -0.79162,0.39627 -1.33638,0.767033 -1.63336,1.1132 -0.0501,0.04919 -0.13482,0.223186 -0.25962,0.51925 -0.12389,0.296975 -0.24687,0.569353 -0.36985,0.816225 -0.1248,0.246871 -0.23503,0.370763 -0.33342,0.370763 0.29789,-0.04828 0.63039,-0.284222 1.00207,-0.704177 0.37076,-0.420865 0.6067,-0.654983 0.70417,-0.705087 1.28537,-0.84082 2.34938,-1.137795 3.19567,-0.884547 1.08769,0.296975 1.26077,0.693245 0.51834,1.187899 -0.0975,0.09838 -0.35801,0.135734 -0.77797,0.111138 -0.41995,-0.0246 -0.70508,-0.01275 -0.85448,0.03735 0.44637,0.09838 0.81713,0.235029 1.11502,0.407202 0.29606,0.173083 0.37076,0.408112 0.22227,0.705087 0.79072,0.445462 0.94012,0.940116 0.44547,1.484873 -0.64406,0.644052 -1.40927,0.91552 -2.3011,0.816225 0.1494,0 0.1494,0.0993 0,0.296974 l -1.2626,0.816225 c -0.0984,0.04828 -0.41995,0.172172 -0.96471,0.370763 -0.54476,0.196768 -0.91552,0.420866 -1.11411,0.667737 -0.14758,0.19768 -0.22228,0.494654 -0.22228,0.891835 0,0.39627 -0.0246,0.693245 -0.0747,0.890924 -0.0483,0.19859 -0.24687,0.246872 -0.59212,0.148487 -0.1494,0.296975 -0.60671,0.532004 -1.37374,0.704176 -0.76703,0.173084 -1.27353,0.432709 -1.52131,0.778876 0.29606,0.396269 0.27238,0.791628 -0.0747,1.187898 -0.59395,0.495565 -1.11411,0.445462 -1.55866,-0.148487 -0.24687,0.09929 -0.43271,0.346167 -0.5566,0.742436 -0.12298,0.39627 -0.30973,0.668649 -0.55569,0.816225 0.34708,0.544757 0.29606,0.941027 -0.14758,1.187899 0.0492,0 0.16033,0.0501 0.33342,0.148487 0.17217,0.09838 0.35801,0.222276 0.5566,0.370763 0.19768,0.148487 0.32066,0.223186 0.36985,0.223186 -0.19677,0.444551 -0.47006,0.666827 -0.81623,0.666827 0.29698,0.792539 -0.0729,1.658867 -1.11228,2.598072 -0.19951,0.19768 -0.50832,0.395359 -0.92919,0.59395 -0.42178,0.197679 -0.80438,0.358009 -1.15146,0.4819 -0.34708,0.123891 -0.54385,0.210433 -0.59304,0.259625 -0.49465,0.446373 -0.86633,0.903678 -1.1132,1.373736 -0.24687,0.470058 -0.28422,0.927362 -0.11205,1.372824 0.17309,0.446373 0.6313,0.741526 1.37465,0.891835 l 0.072,0.593038 v 1.335475 l 0.0747,0.59395 c 0.051,0.346166 0.0884,0.655894 0.11204,0.929184 0.0237,0.272379 0.0237,0.617634 0,1.039411 -0.0237,0.419955 -0.13573,0.654984 -0.33341,0.703265 -0.19677,0.05101 -0.46915,0 -0.81622,-0.148487 -0.39718,-0.197679 -0.86633,-1.286283 -1.41109,-3.264899 -0.0993,-0.494654 -0.39718,-1.087692 -0.89183,-1.780937 -0.24687,0.246872 -0.45731,0.407201 -0.63039,0.48099 -0.17126,0.0747 -0.29606,0.08836 -0.36894,0.03735 -0.0747,-0.04919 -0.21043,-0.161241 -0.40903,-0.333413 -0.19767,-0.172172 -0.36985,-0.309728 -0.51925,-0.407201 -0.24687,-0.148488 -0.67958,-0.272379 -1.29903,-0.370763 -0.61764,-0.09838 -1.00297,-0.223187 -1.14964,-0.370763 -1.18881,0.891835 -1.90665,0.667737 -2.15352,-0.666827 -0.0984,0.246872 -0.0865,0.581196 0.0374,1.002062 0.12389,0.420866 0.18584,0.654984 0.18584,0.704176 -0.34617,0.644053 -0.89002,0.693245 -1.632455,0.147577 -0.296975,-0.295153 -0.977466,-0.332503 -2.041473,-0.110227 -1.064007,0.222275 -1.769095,0.259625 -2.115261,0.110227 0.0501,0 0.148487,0.0747 0.296974,0.224097 0.148488,0.09747 0.247783,0.171261 0.296975,0.221364 -0.0501,0.198591 -0.123891,0.346167 -0.223186,0.445462 -0.0993,0.09747 -0.198591,0.134823 -0.296975,0.111138 -0.09929,-0.0246 -0.210433,-0.0246 -0.334324,0 -0.123892,0.02369 -0.235029,0.06104 -0.334324,0.111138 -0.19768,0.147576 -0.444551,0.407201 -0.741526,0.777964 -0.296975,0.370763 -0.51925,0.605792 -0.667738,0.704176 0.296064,0.790718 0.432709,1.397421 0.408113,1.817376 -0.02551,0.421777 -0.09929,1.040322 -0.223187,1.855636 -0.123891,0.816224 -0.185837,1.47303 -0.185837,1.967684 0,0.790718 0.235029,1.70806 0.705087,2.74656 0.470058,1.038501 1.026658,1.75543 1.6698,2.1517 0.347077,0.19859 0.941027,0.321571 1.781847,0.369852 0.840821,0.0501 1.434771,0 1.780937,-0.147577 0.296973,-0.147576 0.519253,-0.32157 0.667743,-0.518339 0.14848,-0.19859 0.27237,-0.483722 0.37076,-0.854485 0.0993,-0.369852 0.17399,-0.629477 0.22318,-0.777964 0.34617,-0.940116 0.98931,-1.43477 1.92852,-1.484873 0.59577,-0.0501 1.02666,0.01366 1.29995,0.184926 0.27237,0.173083 0.38351,0.408112 0.33341,0.705087 -0.0501,0.296974 -0.14849,0.605791 -0.29606,0.928273 -0.14849,0.322482 -0.33433,0.67958 -0.5566,1.076761 -0.22137,0.397181 -0.35801,0.693244 -0.4063,0.891835 -0.0993,0.39627 -0.18674,0.951958 -0.25962,1.67071 -0.0747,0.716929 -0.13756,1.150549 -0.18675,1.299036 0.0993,0.04919 0.47006,0.07379 1.1132,0.07379 0,-0.09838 0.0374,-0.259625 0.11205,-0.4819 0.0729,-0.223187 0.11023,-0.358921 0.11023,-0.408113 0.24778,0.39627 0.64405,0.617635 1.18881,0.667738 0.54384,0.04919 0.94011,-0.148488 1.18789,-0.59395 0.0993,0.148488 0.39627,0.520162 0.89184,1.115022 0.49465,0.592129 0.76703,1.086789 0.81622,1.483969 0.0492,0.19859 0.14758,0.51925 0.29516,0.96562 0.1494,0.44546 0.1995,0.75519 0.1494,0.92918 -0.0492,0.17127 -0.29698,0.25872 -0.74153,0.25872 -0.19768,0 -0.32157,0.0747 -0.37076,0.22227 -0.051,0.1494 -0.051,0.33342 0,0.5566 0.0501,0.22228 0.11205,0.43271 0.18492,0.63039 0.0747,0.19677 0.17309,0.40811 0.29607,0.63039 0.12571,0.22136 0.18674,0.35801 0.18674,0.4072 0.89002,1.63245 2.10251,2.07791 3.63658,1.33639 0,1.43477 -0.34708,2.22548 -1.04032,2.37397 -0.39263,0.0984 -0.83718,-0.15122 -1.33184,-0.74335 z m 1.10865,16.76723 c -0.0975,-0.49466 -0.14758,-0.89001 -0.14211,-1.18517 -0.051,-0.39718 0.12298,-0.92918 0.51834,-1.59601 0.39536,-0.66682 0.59304,-1.17514 0.59304,-1.52131 -0.79163,-0.19768 -1.08861,-0.84173 -0.89184,-1.92942 0.0993,-0.74244 0.81623,-1.73175 2.1517,-2.96884 0.94194,-0.84173 1.23709,-2.02963 0.89184,-3.56278 -0.1494,-0.64315 -0.27329,-1.58417 -0.37168,-2.82126 -0.0975,-1.23709 -0.19768,-2.10342 -0.29697,-2.59808 0,0.14849 0.23503,0.28423 0.70599,0.40812 0.47006,0.12298 0.75428,0.28422 0.85358,0.48099 0.0984,-0.14758 0.22136,-0.41996 0.37076,-0.81623 0.14758,-0.39627 0.29698,-0.69233 0.44364,-0.89092 0.0993,-0.14849 0.30882,-0.33342 0.6313,-0.5566 0.32157,-0.22228 0.532,-0.35801 0.63039,-0.4072 0.0975,-0.0492 0.32066,-0.20953 0.66683,-0.4819 0.34616,-0.27238 0.63129,-0.4819 0.85448,-0.63039 0.2241,-0.14849 0.51925,-0.25963 0.89092,-0.33341 0.37168,-0.0747 0.63039,0.0364 0.77797,0.33341 0.24778,0.29697 0.1995,0.75428 -0.14758,1.37373 -0.34708,0.61855 -0.34708,1.05217 0,1.29995 0.0501,-0.1494 0.0984,-0.47188 0.14758,-0.96653 0.0501,-0.49466 0.1995,-0.86633 0.44637,-1.11411 0.29607,-0.29607 0.58029,-0.47006 0.85358,-0.51834 0.27146,-0.051 0.51834,-0.0137 0.74061,0.11114 0.22319,0.12298 0.48281,0.29515 0.77888,0.51925 0.29697,0.22136 0.56935,0.358 0.81622,0.4072 0.74153,0.24687 1.63336,0.79163 2.67277,1.63245 -0.0501,-0.0501 -0.0501,-0.11114 0,-0.18584 0.0501,-0.0738 0.14758,-0.14758 0.29698,-0.22228 0.14757,-0.0729 0.28331,-0.14757 0.4072,-0.22227 0.12298,-0.0747 0.25871,-0.13482 0.4072,-0.18493 l 0.22319,-0.0747 c 0.34525,0 0.59303,-0.0237 0.74061,-0.0747 0.14758,-0.0492 0.35983,0 0.63039,0.1494 0.27147,0.14758 0.45821,0.25872 0.55569,0.33342 0.0993,0.0738 0.27238,0.20952 0.51925,0.40811 0.24687,0.19768 0.42177,0.34616 0.51834,0.44455 0.1494,0.0975 0.42086,0.27238 0.81622,0.51925 0.39718,0.24687 0.706,0.44455 0.92919,0.59304 0.22318,0.14757 0.42086,0.37076 0.59212,0.66591 0.17309,0.2988 0.23685,0.62037 0.18675,0.96654 0.29698,0.0501 0.89001,0.24687 1.78094,0.59304 0.1494,0.0984 0.4573,0.18583 0.92827,0.25871 0.47097,0.0747 0.77979,0.18675 0.92828,0.33432 -7.1693,7.57377 -15.85444,12.24975 -26.04723,14.03069 z"
     id="path3"
     inkscape:connector-curvature="0" /></svg>