<?xml version="1.0" encoding="utf-8"?>
<!-- Generator: Adobe Illustrator 24.0.3, SVG Export Plug-In . SVG Version: 6.00 Build 0)  -->
<svg version="1.1" id="Laag_1" xmlns="http://www.w3.org/2000/svg" xmlns:xlink="http://www.w3.org/1999/xlink" x="0px" y="0px"
	 viewBox="136.3300018310547 117.69999694824219 292.8900146484375 80.82000732421875" style="enable-background:new 0 0 556 334;" xml:space="preserve">
<style type="text/css">
	.st0{fill:#2D145F;}
</style>
<g>
	<path class="st0" d="M257.52,117.73h7.79c2.98,0.04,7.48,0.1,10.6,2.88c2.53,2.29,3.5,5.72,3.5,9.14c0,2.11-0.31,3.67-0.62,4.71
		c-2.25,7.55-9.08,7.69-11.64,7.72h-9.63V117.73z M263.69,122.89v14.37h1.87c3.26-0.07,7.76-0.24,7.76-7.27
		c0-1.7-0.17-3.39-1.28-4.92c-1.66-2.22-4.02-2.18-5.89-2.18H263.69z"/>
	<path class="st0" d="M293.17,117.73l9.01,24.45h-6.51l-1.21-3.91h-9.01l-1.21,3.91h-6.51l9.07-24.45H293.17z M289.88,123.55
		c-0.31,1.25-0.66,2.53-1,3.78c-0.52,1.84-1.45,4.71-2.01,6.55h6.2L289.88,123.55z"/>
	<path class="st0" d="M298.08,117.7h18.84v4.85h-6.34v19.64h-6.13v-19.64h-6.37V117.7z"/>
	<path class="st0" d="M328.16,117.73l9.01,24.45h-6.51l-1.21-3.91h-9.01l-1.21,3.91h-6.51l9.07-24.45H328.16z M324.87,123.55
		c-0.31,1.25-0.66,2.53-1,3.78c-0.52,1.84-1.45,4.71-2.01,6.55h6.2L324.87,123.55z"/>
	<path class="st0" d="M257.52,145.82h9.84c4.02,0,7.59,0,9.73,3.08c0.94,1.39,1.39,3.36,1.39,5.02c0,1.35-0.28,2.67-0.83,3.81
		c-2.11,4.36-6.62,4.47-9.94,4.54h-4.05v8h-6.13V145.82z M263.65,150.33v7.41h3.67c2.29,0,5.06-0.07,5.06-3.84
		c0-3.57-3.08-3.57-4.85-3.57H263.65z"/>
	<path class="st0" d="M279.84,145.82h11.01c2.56,0.04,5.75,0.07,8,2.49c1.14,1.28,1.94,3.22,1.94,5.44c0,4.92-3.36,6.13-5.02,6.75
		l5.65,9.77h-6.75l-4.85-8.73h-3.84v8.73h-6.13V145.82z M285.97,150.39v6.62h5.06c0.87-0.03,3.67-0.1,3.67-3.36
		c0-3.12-2.25-3.22-3.53-3.26H285.97z"/>
	<path class="st0" d="M313.79,170.97c-7.76,0-12.16-5.96-12.16-13.02c0-6.62,4.19-12.88,12.05-12.88c1.45,0,2.98,0.21,4.47,0.73
		c7.48,2.6,7.97,10.74,7.97,12.4c0,4.23-1.94,8.04-4.64,10.22C319.09,170.38,316.31,170.97,313.79,170.97z M318.01,151.95
		c-1.04-1.11-2.63-1.8-4.3-1.8c-3.71,0-6.06,3.26-6.06,7.69c0,5.82,3.26,7.97,6.13,7.97c2.91,0,6.03-2.08,6.2-7.2
		C320.09,156.04,319.4,153.44,318.01,151.95z"/>
	<path class="st0" d="M340.9,145.82h6.51l-8.49,24.45h-6.23l-8.38-24.45h6.51l5.06,17.39L340.9,145.82z"/>
	<path class="st0" d="M354.22,145.82v24.45h-6.1v-24.45H354.22z"/>
	<path class="st0" d="M356.82,145.82h7.79c2.98,0.04,7.48,0.1,10.6,2.88c2.53,2.29,3.5,5.72,3.5,9.14c0,2.11-0.31,3.67-0.62,4.71
		c-2.25,7.55-9.08,7.69-11.64,7.72h-9.63V145.82z M362.99,150.98v14.37h1.87c3.26-0.07,7.76-0.24,7.76-7.27
		c0-1.7-0.17-3.4-1.28-4.92c-1.66-2.22-4.02-2.18-5.89-2.18H362.99z"/>
	<path class="st0" d="M380.28,145.82h18.08v4.75h-11.98V155h11.19v4.64h-11.19v5.82h13.06v4.81h-19.15V145.82z"/>
	<path class="st0" d="M401.05,145.82h11.01c2.56,0.04,5.75,0.07,8,2.49c1.14,1.28,1.94,3.22,1.94,5.44c0,4.92-3.36,6.13-5.02,6.75
		l5.65,9.77h-6.75l-4.85-8.73h-3.84v8.73h-6.13V145.82z M407.18,150.39v6.62h5.06c0.87-0.03,3.67-0.1,3.67-3.36
		c0-3.12-2.25-3.22-3.53-3.26H407.18z"/>
	<path class="st0" d="M423.75,164.49h5.47v5.78h-5.47V164.49z"/>
	<path class="st0" d="M278.79,192.21c-0.9,1.42-1.77,2.81-3.71,4.16c-1.04,0.73-3.43,2.15-6.82,2.15c-6.48,0-11.71-4.71-11.71-12.99
		c0-7.24,4.92-12.95,11.85-12.95c2.81,0,5.3,0.97,7.14,2.42c1.7,1.35,2.49,2.7,3.19,3.91l-4.85,2.42c-0.35-0.8-0.76-1.63-1.84-2.53
		c-1.18-0.94-2.36-1.21-3.36-1.21c-3.95,0-6.03,3.67-6.03,7.76c0,5.37,2.74,8.04,6.03,8.04c3.19,0,4.47-2.22,5.3-3.64L278.79,192.21
		z"/>
	<path class="st0" d="M290.48,198.48c-7.76,0-12.16-5.96-12.16-13.02c0-6.62,4.19-12.88,12.05-12.88c1.45,0,2.98,0.21,4.47,0.73
		c7.48,2.6,7.97,10.74,7.97,12.4c0,4.23-1.94,8.04-4.64,10.22C295.78,197.9,293.01,198.48,290.48,198.48z M294.7,179.47
		c-1.04-1.11-2.63-1.8-4.3-1.8c-3.71,0-6.06,3.26-6.06,7.69c0,5.82,3.26,7.97,6.13,7.97c2.91,0,6.03-2.08,6.2-7.2
		C296.78,183.56,296.09,180.96,294.7,179.47z"/>
	<path class="st0" d="M331.27,173.34v24.45h-5.85l0.38-17.42l0.07-2.46l-0.21,0.87c-0.31,1.39-0.35,1.56-0.62,2.6l-4.61,16.42h-5.26
		l-4.43-15.73l-1.07-4.36c0.1,1.94,0.1,2.36,0.21,4.68l0.31,15.41h-5.92v-24.45h8.94l3.74,13.72l0.87,3.91
		c0.35-1.7,0.38-1.87,0.66-3.01l3.91-14.62H331.27z"/>
</g>
<g>
	<circle class="st0" cx="213.71" cy="188.82" r="9.55"/>
	<path class="st0" d="M170.86,117.72c5.16,0,9.96,0.82,14.41,2.47c4.45,1.65,8.3,4.11,11.55,7.4c3.25,3.29,5.79,7.4,7.62,12.33
		c1.83,4.93,2.75,10.73,2.75,17.38c0,5.83-0.75,11.21-2.24,16.15c-1.5,4.93-3.76,9.19-6.78,12.78c-3.03,3.59-6.8,6.41-11.33,8.46
		c-4.52,2.06-9.85,3.08-15.98,3.08h-34.53v-80.05H170.86z"/>
</g>
</svg>
